<svg width="446" height="858" viewBox="0 0 446 858" fill="none" xmlns="http://www.w3.org/2000/svg">
<path d="M220.36 146.514C218.616 151.076 216.764 155.856 214.693 160.636C212.84 164.982 211.096 169.11 209.243 173.129C211.423 174.324 215.02 176.605 218.399 180.408C223.739 186.382 225.701 193.009 226.682 197.029C233.33 224.296 232.022 276.983 232.022 276.983C231.804 286.76 231.477 301.426 231.695 319.677C238.235 322.61 249.243 326.521 263.521 326.955C280.305 327.39 293.166 322.61 299.923 319.568C297.962 306.532 296.436 292.192 295.673 276.875C294.365 249.933 295.782 225.599 298.288 204.742C300.032 208.109 301.776 211.368 303.52 214.736L314.637 207.892C318.561 205.393 322.484 203.004 326.299 200.505C323.029 187.686 317.035 180.516 313.111 176.823C308.207 172.26 304.065 170.739 290.441 163.678C281.068 158.898 273.657 154.661 268.861 152.054C267.989 153.14 266.79 154.77 265.7 156.834C264.284 159.441 264.284 160.31 263.521 161.505C261.341 165.199 254.692 168.458 249.243 165.851C244.338 163.461 243.466 157.486 243.466 156.943C237.908 154.444 232.24 151.945 226.682 149.447C224.611 148.361 222.431 147.383 220.36 146.514Z" fill="#1E1D1C"/>
<path d="M249.788 69.0577C251.968 74.1635 254.583 77.8571 256.545 80.3557C259.706 84.2665 266.463 92.7399 277.253 95.3472C282.812 96.7594 285.755 95.6731 286.627 97.6285C288.043 100.67 282.049 104.69 278.343 115.662C277.689 117.617 275.945 122.832 277.58 123.918C279.215 125.113 282.594 120.659 286.191 121.637C289.787 122.723 290.332 128.155 292.185 128.046C293.166 127.937 294.365 126.308 295.564 119.464C296.545 120.985 301.231 127.937 304.174 126.96C305.918 126.417 306.354 123.266 306.463 122.832C307.008 119.029 304.61 115.988 302.648 113.055C299.378 107.949 300.795 107.84 296.654 98.8235C291.967 88.7205 289.569 83.6147 284.992 78.9434C280.523 74.4894 271.477 72.3167 254.147 65.4728C250.224 63.9519 246.191 62.431 241.396 63.1915C237.254 63.8433 235.619 65.6901 226.028 73.2945C214.039 82.7456 212.404 83.2888 210.66 87.1996C208.589 91.6536 207.064 99.0407 210.333 102.517C211.423 103.712 212.295 103.603 213.385 105.124C215.347 107.949 214.475 111.425 213.712 115.227C211.859 125.004 210.878 129.024 211.859 129.458C212.731 129.893 213.93 126.634 216.764 126.091C221.45 125.222 226.028 133.043 226.9 132.5C227.772 131.957 222.431 125.113 220.142 115.227C219.161 111.316 217.636 104.364 220.469 97.194C221.995 93.5004 224.175 91.0018 226.464 88.6118C231.15 83.7233 238.671 76.6621 249.788 69.0577Z" fill="#F28F6D"/>
<path d="M230.278 84.701C228.099 88.6118 224.502 96.542 224.502 107.08C224.502 109.252 224.611 120.333 231.586 131.522C234.311 135.976 236.709 139.67 241.613 141.842C248.371 144.884 255.019 142.603 257.417 141.842C267.88 138.475 272.894 129.241 275.292 124.896C277.362 121.093 278.452 117.617 278.997 115.336C279.869 115.662 282.158 116.531 284.774 115.77C288.37 114.684 290.55 111.316 290.986 108.275C291.749 103.821 288.915 100.562 288.479 100.018C286.191 97.4111 283.357 96.6507 280.632 95.8903C277.144 95.0212 275.292 95.2385 273.112 95.0212C264.175 94.0435 256.218 84.7009 252.731 76.7706C250.551 71.7735 250.987 69.2749 249.025 68.5144C244.665 66.7763 236.709 76.0102 230.278 84.701Z" fill="#E0AF90"/>
<path d="M266.463 149.447C267.444 153.466 266.463 158.246 263.085 161.505C258.616 165.742 250.878 165.959 248.48 163.135C246.845 161.288 248.807 158.898 248.044 153.575C247.39 148.469 244.447 147.492 245.101 145.319C246.3 141.299 256.327 138.584 262.104 142.82C265.373 144.993 266.245 148.361 266.463 149.447ZM135.457 61.9965C138.073 62.431 141.996 63.3001 146.247 65.3641C148.318 66.3418 160.198 71.9908 167.064 84.8096C170.77 91.6536 169.462 94.0435 174.148 100.562C176.982 104.364 177.636 103.929 182.868 109.687C189.625 117.074 190.061 119.681 195.729 125.873C198.017 128.372 201.723 131.957 206.955 135.868L212.731 141.625C209.57 148.143 206.628 155.313 204.012 163.135C203.249 165.416 202.595 167.589 201.941 169.762C195.293 159.659 188.644 148.687 181.996 136.628C175.456 124.787 169.898 113.38 164.993 102.626C161.07 101.322 158.018 100.018 155.838 98.9321C151.369 96.6507 149.517 95.0212 146.247 95.2385C143.413 95.4558 143.086 96.7594 140.797 96.4335C137.528 95.999 135.021 92.414 134.149 89.3723C133.059 85.7873 133.713 80.6815 136.656 79.052C139.489 77.4225 142.977 79.8125 143.74 78.6175C144.612 77.3139 140.361 74.3808 137.528 68.2973C136.329 65.5814 135.784 63.4087 135.457 61.9965ZM308.425 213.758C308.316 214.953 309.624 217.669 312.239 222.992C315.182 228.858 316.599 231.792 318.779 233.747C319.869 234.725 320.741 235.268 320.959 236.463C321.504 239.396 317.035 242.655 316.054 243.415C313.22 245.479 311.585 245.588 311.694 246.24C311.803 247.652 318.234 249.608 324.228 247.978C326.408 247.435 327.28 246.674 330.441 246.023C332.948 245.588 334.691 245.588 336.653 245.588C345.263 245.697 349.514 245.805 350.931 244.067C353.22 241.351 350.386 235.702 349.405 233.747C347.661 230.162 345.59 229.836 337.852 222.558C334.582 219.516 332.948 217.995 332.076 216.8C327.171 209.847 329.896 204.633 326.735 202.569C321.831 199.527 308.97 206.371 308.425 213.758ZM226.9 447.213C227.336 456.882 227.336 467.419 226.464 478.826C224.72 502.073 220.142 522.062 215.129 538.248C215.238 539.009 216.328 543.572 220.796 546.07C224.502 548.134 229.189 548.026 233.003 545.636C232.894 543.354 232.785 539.878 233.003 535.641C233.657 526.299 235.728 520.324 239.543 507.94C243.684 494.252 245.864 487.408 246.518 483.28C248.044 473.394 248.044 464.594 247.826 459.38C247.608 455.143 247.281 451.667 246.954 448.951C240.197 448.408 233.548 447.865 226.9 447.213ZM300.359 444.171C301.013 449.277 302.212 456.99 304.719 466.333C306.681 473.611 307.771 475.892 313.438 492.731C317.471 504.898 319.542 510.981 320.85 516.196C323.574 526.842 324.664 536.076 325.209 543.028C326.408 543.463 330.114 544.549 334.364 543.028C340.25 540.964 342.321 535.641 342.648 534.772C341.558 529.34 339.814 520.541 337.852 509.678C334.037 488.277 333.274 481.433 330.441 469.809C328.697 462.748 325.863 452.21 320.85 439.5C313.983 441.021 307.226 442.65 300.359 444.171Z" fill="#E0AF90"/>
<path d="M171.206 571.816C170.879 583.983 170.552 602.343 170.552 624.613C170.661 661.657 171.86 665.35 172.405 702.286C173.059 746.391 171.642 755.408 172.296 811.572C172.514 828.302 172.841 841.989 173.059 850.897C208.153 855.351 248.916 858.176 294.147 856.872C325.645 856.003 354.637 853.287 380.794 849.594C382.865 803.967 383.955 756.06 383.737 706.197C383.519 657.094 381.993 609.947 379.595 564.864C347.443 566.819 321.504 567.254 304.065 567.362C274.856 567.471 261.45 566.602 234.856 567.362C207.282 568.231 185.156 570.295 171.206 571.816Z" fill="#3278FF"/>
<path d="M235.51 118.16C234.529 119.681 237.254 124.027 241.068 125.439C245.101 126.96 248.916 124.678 250.442 123.701C255.346 120.768 258.18 115.336 257.308 114.358C256.436 113.489 253.602 117.074 247.499 118.16C240.742 119.355 236.491 116.422 235.51 118.16Z" fill="#F9F9F9"/>
<path opacity="0.47" d="M412.511 339.883H303.302C296.218 340.208 289.024 340.643 281.94 340.969C282.921 328.041 284.011 315.005 284.992 302.078C283.575 281.003 281.94 264.49 280.85 253.953C278.779 234.29 277.253 223.535 283.902 217.126C289.787 211.368 299.16 212.237 303.193 212.455C325.536 214.084 361.612 213.976 412.402 212.455C428.968 212.455 442.374 225.817 442.374 242.329V310.117C439.431 317.178 436.488 324.131 433.655 331.192C426.57 334.125 419.595 337.058 412.511 339.883Z" fill="#3278FF"/>
<path opacity="0.57" d="M134.04 153.575L48.7004 154.553C40.5261 153.575 32.2429 152.489 24.0686 151.511C23.4146 137.497 22.6517 123.483 21.9978 109.47C20.5809 90.35 19.273 71.2304 17.8561 52.1108L9.68182 9.09165H39.4362C72.0244 10.0694 104.504 11.1557 137.092 12.1334C149.408 10.7211 161.724 9.41755 174.039 8.00531C175.783 20.281 177.418 32.5566 179.162 44.8323V97.0853C179.816 113.489 180.579 129.893 181.233 146.297C165.538 148.795 149.735 151.185 134.04 153.575Z" fill="#3278FF"/>
<g opacity="0.89">
<path d="M345.229 235.384C368.577 235.964 387.524 235.655 387.548 234.696C387.572 233.736 368.664 232.488 345.316 231.909C321.968 231.33 303.021 231.638 302.997 232.597C302.973 233.557 321.881 234.805 345.229 235.384Z" fill="#3278FF" stroke="#3278FF" stroke-miterlimit="10"/>
</g>
<g opacity="0.89">
<path d="M392.783 255.039C392.674 255.582 386.898 253.844 377.525 254.279C372.838 254.387 367.279 255.039 360.958 255.8C354.746 256.669 347.77 257.321 340.468 257.864C325.863 258.841 312.566 258.516 303.084 257.864C293.493 257.212 287.716 256.126 287.716 255.691C287.716 255.148 293.711 255.257 303.193 255.365C312.675 255.365 325.863 255.257 340.25 254.388C347.443 253.953 354.31 253.301 360.631 252.649C366.953 251.998 372.62 251.672 377.525 251.889C382.429 251.998 386.244 252.758 388.86 253.518C390.168 253.844 391.148 254.279 391.802 254.605C392.456 254.713 392.783 254.931 392.783 255.039Z" fill="#3278FF" stroke="#3278FF" stroke-miterlimit="10"/>
</g>
<g opacity="0.89">
<path d="M302.43 318.808C301.449 318.808 300.359 308.705 299.487 296.212C298.724 283.719 298.506 273.507 299.487 273.507C300.468 273.398 302.212 283.501 302.975 295.994C303.956 308.596 303.411 318.808 302.43 318.808Z" fill="#3278FF" stroke="#3278FF" stroke-miterlimit="10"/>
</g>
<g opacity="0.89">
<path d="M394.636 309.248C394.418 309.356 393.655 307.727 392.565 304.577C391.584 301.426 390.277 296.863 389.405 290.997C388.969 288.064 388.642 284.805 388.533 281.329C388.424 279.591 388.424 277.744 388.424 275.897C388.424 275.028 388.424 274.05 388.533 273.073V272.638C388.533 272.529 388.642 272.312 388.424 272.312H383.955C381.993 272.421 379.922 272.421 377.852 272.529C373.71 272.747 369.35 273.073 364.882 273.399C356.054 274.159 347.552 274.919 339.814 275.354C332.076 275.789 324.991 275.789 319.106 275.354C318.343 275.354 317.689 275.245 316.926 275.245C316.272 275.137 315.509 275.137 314.855 275.028C313.547 274.919 312.239 274.702 311.149 274.594C308.861 274.159 306.79 273.833 305.264 273.507C302.103 272.747 300.359 272.095 300.359 271.878C300.468 271.226 307.553 272.855 319.215 272.855C324.991 272.964 331.967 272.747 339.596 272.095C347.225 271.552 355.727 270.574 364.664 269.814C369.132 269.379 373.492 269.162 377.743 268.945C379.813 268.836 381.993 268.836 383.955 268.836H392.129V269.27L392.02 270.465C391.911 271.226 391.911 272.095 391.802 272.855C391.802 273.833 391.693 274.702 391.693 275.571C391.584 277.418 391.584 279.156 391.584 280.786C391.584 284.153 391.802 287.304 392.02 290.237C393.001 302.187 395.181 309.139 394.636 309.248Z" fill="#3278FF" stroke="#3278FF" stroke-miterlimit="10"/>
</g>
<g opacity="0.89">
<path d="M392.783 311.312C392.892 311.746 388.315 313.484 380.576 314.136C376.653 314.462 372.075 314.462 366.953 314.353C361.83 314.245 356.38 314.028 350.604 314.462C344.827 314.788 339.378 315.657 334.364 316.2C329.351 316.852 324.664 317.287 320.85 317.395C313.002 317.613 308.316 316.417 308.316 315.983C308.425 315.44 313.111 315.766 320.632 314.897C324.446 314.462 328.915 313.81 333.928 313.05C338.942 312.289 344.501 311.312 350.386 310.986C356.381 310.551 362.048 310.877 367.062 311.203C372.075 311.529 376.653 311.746 380.467 311.746C387.988 311.746 392.674 310.877 392.783 311.312Z" fill="#3278FF" stroke="#3278FF" stroke-miterlimit="10"/>
</g>
<g opacity="0.89">
<path d="M336.435 309.356C336.108 309.791 334.146 308.487 330.986 306.749C327.825 305.011 323.247 302.947 317.907 301.861C315.182 301.317 312.675 300.992 310.278 300.883C307.88 300.774 305.591 300.774 304.283 301.209C303.956 301.317 303.629 301.426 303.302 301.643C303.084 301.752 302.866 301.969 302.648 302.186C302.321 302.621 302.103 303.056 301.994 303.49C301.776 304.25 302.103 304.794 301.885 305.011C301.776 305.12 301.558 305.12 301.34 304.902C301.122 304.685 300.795 304.251 300.577 303.599C300.468 302.947 300.468 302.078 300.904 301.209C301.122 300.774 301.449 300.34 301.885 300.014C302.321 299.688 302.757 299.362 303.302 299.036C304.283 298.493 305.482 298.276 306.681 298.167C307.771 298.058 309.079 297.841 310.387 297.841C313.002 297.732 315.836 297.95 318.779 298.602C324.664 299.796 329.46 302.512 332.512 304.902C335.345 307.075 336.762 309.03 336.435 309.356Z" fill="#3278FF" stroke="#3278FF" stroke-miterlimit="10"/>
</g>
<g opacity="0.89">
<path d="M361.394 309.574C361.176 310.008 358.669 308.922 355.291 306.315C353.656 305.12 351.694 303.49 349.514 302.187C347.334 300.774 344.718 299.579 341.885 298.71C336.217 296.863 330.659 296.755 326.626 297.189C325.645 297.298 324.773 297.407 323.901 297.515C323.683 297.515 323.574 297.515 323.465 297.624C323.356 297.624 323.247 297.732 323.138 297.732C322.92 297.841 322.702 298.058 322.593 298.167C322.266 298.493 322.048 298.819 322.157 299.036C322.266 299.253 322.375 299.145 322.266 299.145C322.157 299.145 321.831 299.253 321.504 299.036C321.177 298.819 321.177 298.167 321.395 297.407C321.504 297.081 321.722 296.755 322.048 296.429C322.266 296.212 322.375 296.103 322.593 295.994C322.811 295.886 323.138 295.777 323.247 295.668C324.01 295.343 324.991 295.017 325.972 294.799C330.114 293.713 336.326 293.387 342.757 295.451C345.917 296.429 348.751 297.95 351.149 299.579C353.547 301.209 355.291 303.056 356.707 304.576C359.759 307.51 361.612 309.248 361.394 309.574Z" fill="#3278FF" stroke="#3278FF" stroke-miterlimit="10"/>
</g>
<g opacity="0.89">
<path d="M362.484 301.1C361.503 300.883 361.721 297.298 361.83 293.061C361.939 288.825 362.048 285.24 363.029 285.022C364.01 284.805 365.536 288.39 365.427 293.17C365.209 297.841 363.465 301.317 362.484 301.1Z" fill="#3278FF" stroke="#3278FF" stroke-miterlimit="10"/>
</g>
<g opacity="0.89">
<path d="M374.691 305.663C374.255 305.771 373.383 304.794 372.62 302.838C371.748 300.883 370.985 298.058 370.658 294.799C370.331 291.54 370.549 288.716 370.985 286.543C371.421 284.479 372.075 283.284 372.511 283.284C373.492 283.393 373.601 288.39 374.146 294.365C374.8 300.448 375.672 305.337 374.691 305.663Z" fill="#3278FF" stroke="#3278FF" stroke-miterlimit="10"/>
</g>
<g opacity="0.89">
<path d="M423.192 239.07C423.192 239.505 421.993 240.156 420.031 240.482C417.96 240.808 415.126 240.917 411.966 240.374C408.805 239.831 406.189 238.961 404.336 237.984C402.483 237.006 401.503 236.137 401.721 235.702C402.156 234.833 406.843 236.028 412.511 236.897C418.178 237.875 423.083 238.092 423.192 239.07Z" fill="#3278FF" stroke="#3278FF" stroke-miterlimit="10"/>
</g>
<g opacity="0.89">
<path d="M413.964 258.382C420.074 257.779 424.95 256.515 424.855 255.56C424.76 254.605 419.73 254.32 413.62 254.923C407.51 255.526 402.635 256.789 402.73 257.745C402.824 258.7 407.854 258.985 413.964 258.382Z" fill="#3278FF" stroke="#3278FF" stroke-miterlimit="10"/>
</g>
<g opacity="0.89">
<path d="M426.788 305.011C426.897 305.446 424.609 306.097 420.903 306.858C419.05 307.292 416.761 307.618 414.146 308.053C412.838 308.27 411.53 308.487 410.113 308.705L407.824 309.031C406.625 309.248 405.208 309.139 404.445 308.161C404.009 307.618 403.791 306.858 403.682 306.097C403.682 305.554 403.573 304.902 403.573 304.359C403.464 303.382 403.464 302.404 403.355 301.426C402.484 286.543 402.593 274.376 403.573 274.376C404.554 274.376 406.08 286.326 406.952 301.209C407.061 303.056 407.17 305.663 407.17 305.446C407.279 305.663 407.497 305.554 407.715 305.554C408.369 305.446 409.023 305.446 409.677 305.337C411.094 305.228 412.402 305.12 413.71 305.011C416.216 304.794 418.505 304.685 420.467 304.576C424.391 304.576 426.788 304.577 426.788 305.011Z" fill="#3278FF" stroke="#3278FF" stroke-miterlimit="10"/>
</g>
<g opacity="0.89">
<path d="M411.857 283.284C412.838 283.175 414.472 288.064 414.472 294.365C414.581 300.666 413.056 305.663 412.075 305.554C411.094 305.445 410.985 300.448 410.985 294.473C410.876 288.39 410.876 283.393 411.857 283.284Z" fill="#3278FF" stroke="#3278FF" stroke-miterlimit="10"/>
</g>
<g opacity="0.89">
<path d="M419.595 269.162C420.576 269.162 421.775 277.309 421.666 287.412C421.557 297.515 420.14 305.663 419.159 305.554C418.178 305.446 417.96 297.298 418.178 287.304C418.178 277.309 418.614 269.162 419.595 269.162Z" fill="#3278FF" stroke="#3278FF" stroke-miterlimit="10"/>
</g>
<g opacity="0.89">
<path d="M427.66 305.445C428.623 305.445 429.404 302.284 429.404 298.384C429.404 294.484 428.623 291.323 427.66 291.323C426.697 291.323 425.917 294.484 425.917 298.384C425.917 302.284 426.697 305.445 427.66 305.445Z" fill="#3278FF" stroke="#3278FF" stroke-miterlimit="10"/>
</g>
<path d="M279.542 115.553C279.76 115.553 279.433 117.074 278.67 119.573C277.907 122.071 276.599 125.656 274.093 129.784C272.785 131.848 271.259 133.912 269.297 135.976C267.335 138.04 264.937 139.996 262.213 141.517C259.379 143.146 256.218 144.341 252.731 144.884C249.243 145.536 245.428 145.21 241.832 144.124C238.235 142.929 235.074 140.973 232.458 138.692C229.843 136.411 227.663 133.804 225.919 131.196C222.54 125.873 220.687 120.333 219.815 115.662C218.943 110.99 219.052 107.08 219.27 104.472C219.488 101.865 219.924 100.453 220.142 100.453C220.36 100.453 220.251 101.974 220.36 104.472C220.469 107.08 220.687 110.773 221.777 115.227C222.867 119.681 224.72 124.787 228.099 129.784C229.734 132.283 231.804 134.673 234.311 136.737C236.709 138.801 239.652 140.539 242.812 141.625C245.973 142.603 249.352 142.929 252.513 142.386C255.673 141.951 258.616 140.865 261.232 139.453C266.463 136.628 270.169 132.5 272.676 128.806C275.292 125.004 276.817 121.637 277.907 119.247C278.888 116.857 279.433 115.444 279.542 115.553Z" fill="black" stroke="black" stroke-width="0.75" stroke-miterlimit="10"/>
<path d="M278.016 116.096C278.125 115.988 278.561 116.205 279.324 116.313C280.087 116.422 281.286 116.422 282.594 115.988C283.902 115.553 285.428 114.793 286.736 113.489C288.043 112.185 289.133 110.339 289.351 108.383C289.678 106.319 289.133 104.364 288.152 102.843C287.171 101.322 285.864 100.127 284.665 99.3666C282.158 97.8457 280.196 97.9543 280.196 97.5198C280.196 97.4112 280.632 97.0853 281.613 96.9766C282.594 96.868 284.011 96.9766 285.537 97.6285C287.172 98.2803 288.915 99.4752 290.223 101.431C291.531 103.277 292.512 105.993 292.076 108.709C291.64 111.425 290.223 113.706 288.479 115.227C286.735 116.748 284.774 117.617 283.03 117.834C281.286 118.052 279.869 117.834 278.997 117.291C278.016 116.748 277.907 116.205 278.016 116.096Z" fill="black" stroke="black" stroke-width="0.75" stroke-miterlimit="10"/>
<path d="M276.817 110.882C276.49 110.882 276.054 110.23 275.945 109.035C275.836 107.84 275.945 106.211 276.708 104.472C277.035 103.603 277.58 102.843 278.016 102.3C278.234 101.974 278.561 101.757 278.779 101.431C279.106 101.105 279.433 100.887 279.869 100.779C280.523 100.453 281.286 100.562 281.613 100.887C281.94 101.213 281.94 101.539 281.831 101.757C281.722 101.865 281.613 101.865 281.395 101.865C281.286 101.865 281.177 101.974 281.068 102.082L280.741 102.408C280.632 102.517 280.523 102.734 280.414 102.843C280.305 103.06 280.087 103.386 279.978 103.712C279.651 104.255 279.324 104.907 279.106 105.667C277.907 108.275 277.58 110.773 276.817 110.882Z" fill="black" stroke="black" stroke-width="0.75" stroke-miterlimit="10"/>
<path d="M283.248 112.62C282.921 112.62 282.485 112.077 282.158 111.208C281.831 110.339 281.504 109.252 280.85 108.492C280.305 107.84 279.433 107.514 278.779 107.405C278.125 107.297 277.58 107.514 277.253 107.297C277.144 107.188 277.035 106.971 277.144 106.645C277.253 106.319 277.689 105.885 278.234 105.667C279.433 105.124 281.395 105.341 282.812 106.971C283.357 107.731 283.684 108.492 283.902 109.252C284.011 110.013 284.011 110.556 284.011 111.099C283.902 111.968 283.575 112.62 283.248 112.62ZM252.295 121.311C252.622 121.419 252.295 122.94 250.442 124.678C249.57 125.439 248.262 126.308 246.736 126.742C245.21 127.177 243.248 127.394 241.396 126.851C239.543 126.308 237.908 125.33 236.818 124.135C235.728 122.94 234.965 121.637 234.638 120.55C233.875 118.269 234.311 116.748 234.638 116.748C235.074 116.748 235.292 118.052 236.382 119.79C237.363 121.528 239.325 123.592 242.158 124.352C244.992 125.113 247.717 124.244 249.461 123.266C250.987 122.18 251.859 121.093 252.295 121.311Z" fill="black" stroke="black" stroke-width="0.75" stroke-miterlimit="10"/>
<path d="M257.526 113.163C257.744 113.38 256.872 114.575 254.801 115.879C253.82 116.531 252.513 117.183 251.096 117.726C249.57 118.269 247.935 118.703 246.082 118.921C244.229 119.138 242.485 119.138 240.96 118.921C239.434 118.703 238.017 118.378 236.927 118.052C234.638 117.291 233.548 116.314 233.657 115.988C233.984 115.227 239.216 117.074 245.864 116.205C252.404 115.662 257.09 112.62 257.526 113.163ZM245.864 110.013C245.973 110.339 245.319 110.882 244.229 110.882C243.684 110.882 242.921 110.773 242.267 110.447C241.614 110.121 240.96 109.578 240.415 108.926C239.87 108.275 239.543 107.514 239.325 106.754C239.216 105.993 239.216 105.341 239.325 104.798C239.652 103.712 240.306 103.169 240.524 103.386C240.851 103.495 240.96 104.146 241.178 104.907C241.396 105.667 241.832 106.536 242.485 107.406C243.139 108.275 244.011 108.818 244.665 109.252C245.21 109.47 245.755 109.687 245.864 110.013ZM230.605 101.648C230.278 101.757 229.734 101.431 229.189 100.562C228.644 99.6925 228.317 98.3889 228.317 96.868C228.317 95.3471 228.862 94.0435 229.407 93.2831C229.952 92.5227 230.496 92.0881 230.823 92.3054C231.477 92.7399 231.041 94.6953 230.932 96.9767C230.932 99.3666 231.259 101.322 230.605 101.648ZM255.782 99.8011C255.128 99.9098 254.147 97.9544 254.474 95.4558C254.801 92.9572 256.327 91.3277 256.981 91.6536C257.635 91.9795 257.417 93.7176 257.199 95.7817C256.763 97.9544 256.545 99.6925 255.782 99.8011ZM245.21 61.5619C245.646 62.2137 233.221 69.7095 219.161 80.3557C215.783 83.0715 212.84 86.0046 211.205 89.155C209.461 92.3054 209.243 95.6731 209.679 98.2803C209.897 99.5839 210.333 100.779 210.769 101.757C211.314 102.734 211.859 103.495 212.295 104.038C213.385 105.124 214.148 105.667 214.039 105.885C214.039 105.993 213.058 105.885 211.641 104.798C210.987 104.255 210.224 103.495 209.461 102.517C208.807 101.431 208.153 100.236 207.826 98.7148C207.39 97.1939 207.282 95.4558 207.391 93.609C207.5 91.7622 208.044 89.8068 209.025 87.96C210.878 84.2665 214.039 81.0075 217.527 78.183C231.804 67.4282 244.883 60.9101 245.21 61.5619Z" fill="black" stroke="black" stroke-width="0.75" stroke-miterlimit="10"/>
<path d="M251.096 67.4282C251.532 68.1886 242.594 72.9686 233.984 81.6593C225.265 90.2414 220.251 98.9321 219.597 98.6062C219.27 98.4976 220.142 95.999 222.213 92.4141C223.194 90.6759 224.611 88.6119 226.246 86.4392C227.881 84.2665 229.843 81.9852 232.131 79.8125C234.42 77.6398 236.709 75.6844 238.889 74.0549C241.068 72.4254 243.139 71.1218 244.992 70.0355C248.589 67.9714 250.987 67.2109 251.096 67.4282ZM276.708 95.5645C276.599 95.8904 274.42 95.8904 271.041 94.804C270.169 94.5867 269.297 94.2609 268.316 93.8263C267.335 93.3918 266.354 92.8486 265.373 92.3054C263.303 91.1105 261.232 89.5896 259.27 87.7428C257.308 85.896 255.673 83.832 254.365 81.8766C253.711 80.8989 253.166 79.9211 252.73 78.9434C252.186 78.0744 251.859 77.0967 251.532 76.3362C250.333 72.9686 250.115 70.7959 250.442 70.7959C250.878 70.6872 251.641 72.6426 253.166 75.5758C253.602 76.3362 254.038 77.0967 254.583 77.9657C255.128 78.8348 255.673 79.5952 256.327 80.5729C257.635 82.3111 259.27 84.1579 261.014 85.896C262.867 87.6342 264.828 89.0464 266.572 90.2414C267.553 90.7845 268.425 91.4363 269.297 91.8709C270.169 92.4141 270.932 92.74 271.695 93.0659C274.747 94.5867 276.817 95.2386 276.708 95.5645ZM301.994 111.316C301.667 111.425 300.141 107.623 297.417 101.648C296 98.6062 294.365 95.1299 292.294 91.3277C291.204 89.3723 290.114 87.4169 288.915 85.4615C288.261 84.4838 287.716 83.3974 287.062 82.4197C286.409 81.442 285.755 80.4643 284.992 79.9211C284.229 79.2693 283.139 78.8348 282.049 78.4003C280.85 77.9657 279.76 77.5312 278.67 77.2053C276.381 76.3362 274.311 75.5758 272.24 74.8153C268.098 73.2945 264.392 71.8822 261.341 70.3613C258.289 68.8405 256 67.2109 254.692 65.9073C253.275 64.6037 252.731 63.7346 252.84 63.626C253.166 63.3001 256.109 66.2332 262.104 68.6232C265.155 69.9268 268.861 71.0131 273.003 72.4254C275.074 73.1858 277.253 73.8376 279.542 74.7067C280.632 75.1412 281.831 75.4672 283.03 75.9017C284.229 76.3362 285.537 76.8794 286.736 77.8571C287.934 78.8348 288.697 80.0298 289.351 81.1161C290.005 82.2025 290.659 83.1802 291.204 84.2665C292.403 86.3305 293.493 88.3946 294.474 90.35C296.436 94.2608 297.962 97.9544 299.16 101.105C301.449 107.188 302.321 111.208 301.994 111.316ZM305.046 115.553C305.264 115.553 305.591 116.531 305.918 118.486C306.136 119.464 306.245 120.659 306.463 121.963C306.572 122.614 306.572 123.375 306.681 124.135V125.873C306.681 126.525 306.681 127.177 306.79 127.829C306.245 127.829 305.591 127.72 304.937 127.612C304.61 127.612 304.283 127.503 303.956 127.503C303.629 127.503 303.193 127.394 303.084 127.286C302.212 127.068 301.231 126.851 300.359 126.417C299.487 126.091 298.506 125.547 297.635 125.004L297.308 124.787L297.199 124.678C297.09 124.57 296.981 124.57 296.872 124.461C296.763 124.461 296.872 124.787 296.763 124.896V125.113L296.654 125.656L296.545 126.525L296.436 126.96C296.436 127.177 296.327 127.503 296.327 127.72C296.218 128.263 296 128.698 295.673 129.132C295.346 129.458 294.801 129.784 294.365 129.784C293.493 130.001 292.185 129.241 291.858 129.132C291.313 128.915 290.768 128.589 290.223 128.372C289.133 127.829 288.043 127.068 287.172 126.091C286.736 125.547 286.3 125.004 286.082 124.461C285.864 123.918 285.646 123.375 285.428 123.049C285.428 122.94 285.319 122.832 285.319 122.832C285.319 122.832 285.319 122.723 285.21 122.723C285.21 122.614 285.101 122.614 284.992 122.614C284.883 122.506 284.665 122.614 284.556 122.614C284.447 122.723 283.902 123.049 283.575 123.375C283.139 123.701 282.812 123.918 282.485 124.244C281.722 124.787 281.068 125.33 280.305 125.873C278.997 126.851 277.689 127.829 276.599 128.589L273.766 130.545L275.292 127.612C277.035 124.353 278.234 122.397 278.452 122.614C278.67 122.832 278.016 124.896 276.708 128.372L275.51 127.394C276.49 126.525 277.689 125.439 278.888 124.353C279.542 123.809 280.196 123.266 280.959 122.614C281.286 122.288 281.722 121.963 282.049 121.745C282.485 121.419 282.703 121.093 283.357 120.659C284.12 120.224 284.992 120.116 285.755 120.442C286.191 120.55 286.518 120.876 286.844 121.202C286.953 121.419 287.171 121.528 287.28 121.745C287.389 121.854 287.498 122.071 287.498 122.18C287.825 122.723 288.043 123.266 288.152 123.701C288.37 124.027 288.588 124.461 288.915 124.787C289.569 125.439 290.332 125.982 291.313 126.417C292.185 126.851 293.711 127.503 293.602 127.394C293.82 127.394 293.82 127.286 293.82 127.068C293.929 126.525 293.929 126.091 294.038 125.547C294.147 124.57 294.365 123.701 294.474 122.723C294.583 122.18 294.583 121.745 294.692 121.202L294.801 120.442C294.801 120.224 294.91 119.898 294.91 119.79C295.564 120.442 296.327 121.093 296.981 121.745C297.308 122.071 297.635 122.397 297.962 122.614C298.288 122.832 298.724 123.158 298.833 123.266C299.596 123.809 300.359 124.135 301.122 124.57C301.885 124.896 302.648 125.222 303.411 125.439C303.629 125.547 303.738 125.547 303.956 125.656C304.065 125.656 304.283 125.765 304.392 125.765V119.029C304.828 116.639 304.828 115.553 305.046 115.553ZM258.616 119.029C257.853 118.921 257.526 116.748 256.218 114.575C254.91 112.403 253.166 111.099 253.384 110.339C253.493 110.013 254.256 109.904 255.346 110.339C256.327 110.773 257.635 111.751 258.507 113.163C259.379 114.575 259.706 116.205 259.488 117.291C259.488 118.378 259.052 119.029 258.616 119.029ZM224.829 131.305C224.829 131.522 223.63 131.631 221.668 130.979C219.815 130.436 217.091 129.024 214.802 126.525L216.655 126.417C216.437 126.742 216.328 127.068 216.11 127.394L215.783 127.937C215.565 128.263 215.456 128.481 215.238 128.806C214.911 129.458 214.584 130.11 214.257 130.871C213.93 131.631 213.603 132.609 213.276 133.695C212.622 133.804 212.295 133.912 212.077 134.13L211.968 134.238C211.859 134.238 211.968 134.347 211.641 134.238C211.205 134.13 210.878 133.804 210.66 133.586C210.333 133.152 210.224 132.609 210.006 132.066C210.006 131.631 209.897 131.196 209.897 130.762C209.897 130.327 209.897 129.676 210.006 129.132C210.115 128.046 210.224 126.742 210.333 125.873C210.442 125.222 210.551 124.57 210.66 124.027C211.096 121.528 211.641 119.355 212.186 117.617C213.276 114.032 214.475 111.968 214.802 112.077C215.129 112.185 214.693 114.467 214.039 118.052C213.712 119.898 213.385 121.963 213.167 124.353C213.058 124.896 213.058 125.547 212.949 126.199V127.72C212.949 127.829 213.058 127.937 213.058 127.937C213.167 127.937 213.167 127.937 213.167 127.829V127.72C213.276 127.612 213.276 127.394 213.385 127.286C213.494 127.068 213.603 126.96 213.712 126.742L213.821 126.634L214.148 126.199L214.802 125.222L215.783 123.918L216.764 125.113C218.616 127.503 220.796 128.915 222.431 129.893C223.848 130.653 224.938 131.088 224.829 131.305ZM267.444 151.402C267.117 151.62 266.463 151.294 265.591 150.316C264.719 149.447 263.848 147.926 263.303 146.079C262.758 144.233 262.758 142.494 262.976 141.191C263.194 139.996 263.63 139.235 263.956 139.235C264.719 139.344 264.937 142.168 265.809 145.21C266.681 148.469 268.098 150.968 267.444 151.402ZM249.897 159.007C249.243 159.333 247.063 156.834 245.864 153.032C244.556 149.23 244.774 145.862 245.537 145.753C246.3 145.645 247.172 148.687 248.371 152.163C249.57 155.748 250.551 158.681 249.897 159.007ZM330.441 211.912C330.114 212.02 328.37 207.458 325.427 200.179C323.901 196.594 322.048 192.249 319.542 187.795C317.035 183.341 313.765 178.778 309.515 174.759C307.335 172.803 305.046 171.065 302.757 169.653C300.359 168.241 297.962 167.154 295.564 166.285C290.768 164.438 286.3 162.918 282.594 161.179C278.997 159.441 276.272 157.595 274.638 156.074L273.548 154.987C273.221 154.661 273.003 154.336 272.894 154.118C272.567 153.684 272.349 153.358 272.458 153.358C272.567 153.358 272.785 153.466 273.33 153.792C273.548 154.01 273.875 154.227 274.202 154.444C274.529 154.661 274.965 154.987 275.4 155.313C277.144 156.508 279.869 158.138 283.466 159.55C287.062 160.962 291.531 162.266 296.545 164.113C299.051 164.982 301.667 166.068 304.174 167.589C306.681 169.001 309.188 170.848 311.476 173.021C316.054 177.257 319.324 182.146 321.939 186.817C324.446 191.488 326.19 195.942 327.389 199.636C329.678 207.023 330.768 211.803 330.441 211.912ZM223.303 200.831C222.867 200.94 222.431 199.527 221.45 197.463C221.014 196.377 220.36 195.182 219.597 193.878C218.834 192.575 217.963 191.163 216.982 189.75C215.02 186.817 213.058 184.319 211.641 182.363C210.224 180.408 209.57 179.104 209.788 178.887C210.006 178.67 211.314 179.539 213.058 181.168C214.802 182.798 217.091 185.188 219.161 188.229C220.251 189.75 221.123 191.271 221.777 192.792C222.431 194.313 222.976 195.617 223.194 196.811C223.848 199.201 223.63 200.831 223.303 200.831Z" fill="black" stroke="black" stroke-width="0.75" stroke-miterlimit="10"/>
<path d="M228.099 316.743C227.663 316.743 227.554 309.9 227.227 298.927C226.9 287.955 226.355 272.638 225.374 255.908C224.284 239.07 222.976 223.97 221.886 212.998C220.796 202.026 220.142 195.182 220.578 195.182C220.796 195.182 221.123 196.811 221.777 199.853C222.322 202.895 223.085 207.349 223.848 212.781C225.374 223.753 227.009 238.961 228.099 255.8C229.189 272.638 229.407 287.955 229.189 299.036C229.08 304.576 228.971 309.03 228.753 312.072C228.426 315.005 228.208 316.743 228.099 316.743ZM213.167 437.436C212.949 437.436 212.84 435.806 212.731 432.873C212.622 429.94 212.622 425.595 212.622 420.272C212.731 414.949 212.949 408.648 213.385 401.695C213.821 394.743 214.475 387.03 215.456 378.991C216.437 370.952 217.527 363.347 218.725 356.395C219.924 349.442 221.123 343.25 222.322 338.144C223.412 332.93 224.502 328.802 225.265 325.977C226.028 323.153 226.573 321.523 226.791 321.632C227.227 321.741 225.919 328.15 224.175 338.579C223.303 343.793 222.213 349.985 221.232 356.829C220.251 363.782 219.161 371.278 218.18 379.317C217.2 387.356 216.546 394.96 215.892 401.913C215.347 408.865 214.911 415.166 214.584 420.38C213.93 430.918 213.603 437.436 213.167 437.436ZM254.038 446.235C254.147 446.561 251.859 447.756 247.826 448.625C243.793 449.494 237.908 449.712 231.695 448.408C225.483 447.104 220.251 444.28 216.982 441.781C215.238 440.586 214.039 439.174 213.712 437.87C213.385 436.567 213.821 435.915 213.93 435.915C214.148 435.915 214.148 436.567 214.693 437.436C215.238 438.305 216.328 439.283 218.072 440.152C221.45 442.107 226.464 444.497 232.24 445.801C238.126 447.104 243.575 447.213 247.499 446.778C251.423 446.344 253.929 445.801 254.038 446.235ZM265.7 348.573C265.482 349.225 261.995 348.682 258.289 346.618C254.583 344.554 252.295 341.838 252.73 341.295C253.166 340.752 256.109 342.381 259.597 344.337C263.085 346.292 265.918 347.813 265.7 348.573ZM282.921 442.107C282.594 442.216 281.286 437.001 279.433 428.528C277.58 420.054 275.074 408.431 272.24 395.503C269.406 382.576 266.79 370.952 264.828 362.587C262.976 354.114 261.886 348.899 262.322 348.79C262.649 348.682 264.392 353.788 266.681 362.152C268.97 370.517 272.022 382.141 274.856 394.96C277.689 407.887 279.978 419.62 281.286 428.202C282.703 436.676 283.248 441.999 282.921 442.107Z" fill="black" stroke="black" stroke-width="0.75" stroke-miterlimit="10"/>
<path d="M326.517 432.113C326.735 432.33 325.318 434.72 321.722 437.653C319.978 439.065 317.689 440.586 314.855 441.781C312.13 442.976 308.861 443.954 305.373 444.497C301.994 445.04 298.616 445.149 295.673 445.149C292.73 445.149 290.114 445.04 287.826 444.823C285.537 444.606 283.684 443.954 282.594 443.085C281.504 442.324 281.177 441.564 281.286 441.455C281.395 441.347 281.94 441.781 283.03 442.107C284.12 442.542 285.755 442.868 287.934 442.868C290.114 442.868 292.73 442.759 295.673 442.65C298.616 442.542 301.776 442.324 305.046 441.781C308.316 441.238 311.367 440.478 313.983 439.391C316.599 438.414 318.888 437.11 320.632 435.915C324.337 433.742 326.299 431.787 326.517 432.113Z" fill="black" stroke="black" stroke-width="0.75" stroke-miterlimit="10"/>
<path d="M327.28 435.589C326.953 435.698 325.318 428.854 322.92 417.882C320.523 406.91 317.253 391.701 313.656 374.863C309.951 358.133 306.572 342.924 304.065 331.952C301.558 320.98 300.141 314.136 300.577 314.028C300.795 314.028 301.34 315.657 302.321 318.59C303.302 321.632 304.501 325.977 305.918 331.409C308.861 342.272 312.566 357.373 316.272 374.211C319.978 391.049 322.92 406.258 324.882 417.447C325.863 422.988 326.517 427.55 326.953 430.592C327.28 433.851 327.389 435.589 327.28 435.589ZM252.186 447.322C251.859 447.322 251.859 442.976 252.513 436.132C253.166 429.288 254.256 419.837 256.109 409.517C257.962 399.197 260.033 389.854 261.777 383.228C263.521 376.601 264.937 372.581 265.264 372.581C266.027 372.799 262.322 389.311 258.725 409.951C255.128 430.592 252.948 447.322 252.186 447.322ZM212.513 537.923C212.186 537.814 213.058 532.599 214.475 524.126C215.892 515.653 217.745 504.029 219.161 491.101C220.578 478.174 221.341 466.333 221.777 457.859C222.213 449.277 222.431 444.063 222.758 443.954C223.085 443.954 223.521 449.277 223.63 457.859C223.739 466.441 223.194 478.391 221.777 491.427C220.36 504.463 218.181 516.196 216.328 524.56C214.366 532.817 212.84 537.923 212.513 537.923ZM232.676 545.961C232.458 545.961 232.24 544.549 232.022 542.051C231.804 539.443 231.913 535.75 232.349 531.187C232.894 526.625 233.984 521.301 235.619 515.435C237.145 509.569 239.216 503.268 241.287 496.75C243.357 490.124 244.992 483.823 246.082 477.956C247.063 472.09 247.499 466.767 247.39 462.313C247.172 453.297 244.992 448.082 245.428 447.865C245.537 447.756 246.3 449.06 247.063 451.45C247.935 453.84 248.807 457.533 249.134 462.096C249.57 466.659 249.243 472.199 248.371 478.282C247.39 484.257 245.755 490.775 243.684 497.402C241.613 504.029 239.543 510.329 237.799 515.978C236.055 521.736 234.856 526.95 234.093 531.296C232.785 540.312 233.112 545.961 232.676 545.961ZM212.622 539.009C212.404 539.118 211.968 538.466 210.878 538.14C210.333 537.922 209.57 537.923 208.807 538.031C207.935 538.14 207.063 538.466 206.192 539.009C205.211 539.552 204.339 540.421 203.249 541.29C202.159 542.159 200.96 543.137 199.652 544.006C197.036 545.853 193.876 547.591 190.497 549.112C187.118 550.633 183.631 551.61 180.579 552.371C179.053 552.697 177.636 553.131 176.437 553.566C175.238 554 174.257 554.652 173.603 555.413C172.187 556.933 171.86 558.78 171.969 559.975C172.187 561.17 172.623 561.713 172.514 561.822C172.405 561.931 171.533 561.605 170.988 560.193C170.443 558.78 170.443 556.39 172.078 554.218C173.821 551.936 176.873 550.85 179.925 549.981C182.977 549.112 186.137 548.026 189.407 546.613C192.677 545.201 195.62 543.571 198.235 541.942C199.543 541.073 200.742 540.312 201.832 539.443C202.922 538.683 204.121 537.814 205.211 537.271C206.41 536.728 207.608 536.402 208.698 536.402C209.788 536.402 210.66 536.728 211.314 537.162C212.622 538.031 212.731 538.9 212.622 539.009ZM236.491 561.062C236.491 561.279 235.619 561.387 234.093 561.713C232.567 562.039 230.387 562.582 227.554 563.343C224.829 564.103 221.45 565.081 217.418 565.19C213.494 565.298 209.243 564.538 205.102 564.321C200.851 564.103 196.709 564.321 192.895 564.429C189.08 564.538 185.701 564.646 182.759 564.429C176.873 564.103 173.494 562.691 173.603 562.365C173.712 561.931 177.2 562.691 182.759 562.582C185.592 562.582 188.971 562.257 192.677 562.039C196.491 561.822 200.633 561.387 205.102 561.713C209.57 561.931 213.603 562.8 217.309 562.8C220.905 562.8 224.175 562.039 227.009 561.496C229.843 560.953 232.24 560.736 233.875 560.736C235.619 560.627 236.491 560.844 236.491 561.062ZM234.202 559.867C233.548 559.541 234.311 556.39 234.093 552.588C233.984 548.786 233.003 545.744 233.657 545.31C233.984 545.201 234.638 545.744 235.401 547.048C236.055 548.351 236.709 550.198 236.818 552.479C236.927 554.652 236.491 556.716 235.837 558.02C235.183 559.323 234.529 559.975 234.202 559.867ZM322.157 543.571C321.721 543.571 321.504 537.705 319.106 528.689C317.907 524.126 316.272 518.912 314.092 513.045C311.912 507.179 309.297 500.878 306.79 494.143C304.283 487.408 302.103 480.781 300.795 474.589C299.378 468.397 298.833 462.748 298.18 458.185C297.526 453.514 296.872 449.82 296.327 447.213C295.782 444.606 295.346 443.194 295.564 443.194C295.673 443.085 296.436 444.389 297.308 446.996C298.18 449.494 299.16 453.297 300.032 457.859C300.904 462.53 301.667 468.071 303.193 474.046C304.61 480.021 306.79 486.539 309.297 493.165C311.803 499.901 314.31 506.31 316.381 512.176C318.452 518.042 319.978 523.583 320.959 528.254C321.177 529.449 321.395 530.535 321.612 531.622C321.721 532.708 321.939 533.686 322.048 534.664C322.266 536.51 322.375 538.14 322.484 539.443C322.484 542.051 322.375 543.571 322.157 543.571ZM348.642 545.744C348.424 545.853 347.661 544.441 346.353 541.942L345.263 539.769C344.936 539.009 344.501 538.14 344.174 537.162C343.411 535.315 342.43 533.143 341.558 530.753C341.122 529.558 340.686 528.254 340.25 526.95C339.814 525.647 339.378 524.235 338.942 522.714C338.07 519.781 337.307 516.63 336.544 513.371C335.018 506.745 333.601 499.466 332.403 491.753C331.095 484.04 329.896 476.762 328.588 470.135C327.934 466.876 327.28 463.725 326.626 460.792L325.645 456.556C325.318 455.252 324.882 453.948 324.555 452.753C321.83 442.976 319.324 437.11 319.76 437.001C319.978 436.893 320.741 438.305 321.939 440.912C322.266 441.564 322.593 442.324 322.92 443.085C323.247 443.845 323.574 444.823 324.01 445.692C324.773 447.648 325.645 449.712 326.408 452.21C326.844 453.405 327.171 454.709 327.607 456.012C328.043 457.316 328.37 458.728 328.806 460.249C329.678 463.182 330.332 466.333 331.095 469.592C332.512 476.218 333.819 483.605 335.127 491.21C336.435 498.923 337.743 506.201 339.051 512.828C339.814 516.087 340.468 519.237 341.231 522.062C341.558 523.474 341.994 524.886 342.321 526.19C342.757 527.494 343.084 528.797 343.52 529.992C344.173 532.491 345.045 534.555 345.699 536.51C346.026 537.488 346.353 538.357 346.571 539.117C346.898 539.878 347.225 540.638 347.443 541.29C348.315 544.223 348.751 545.744 348.642 545.744Z" fill="black" stroke="black" stroke-width="0.75" stroke-miterlimit="10"/>
<path d="M365.1 553.566C364.555 554.109 360.522 551.067 355.4 547.7C350.168 544.332 345.699 542.051 346.026 541.29C346.244 540.638 351.367 541.942 356.816 545.418C362.266 548.895 365.645 553.023 365.1 553.566ZM324.119 565.624C323.792 565.733 322.92 564.755 322.049 562.908C321.177 561.062 320.196 558.237 319.76 555.087C319.324 551.936 319.433 549.003 319.869 546.939C320.196 544.875 320.741 543.68 321.177 543.68C321.939 543.789 321.613 548.786 322.484 554.652C323.138 560.518 324.773 565.298 324.119 565.624ZM371.639 564.864C371.53 565.081 370.876 564.972 369.786 565.081C368.696 565.19 367.062 565.516 365.1 566.059C363.029 566.602 360.413 567.145 357.579 567.254C354.746 567.362 351.585 567.145 348.424 566.928C335.563 566.059 325.1 565.407 325.1 564.646C325.1 563.886 335.672 563.343 348.533 564.212C351.803 564.429 354.746 564.755 357.47 564.755C360.195 564.755 362.593 564.538 364.664 564.212C366.735 563.886 368.587 563.777 369.895 563.995C371.094 564.321 371.748 564.755 371.639 564.864Z" fill="black" stroke="black" stroke-width="0.75" stroke-miterlimit="10"/>
<path d="M380.358 563.343C379.704 563.669 377.525 559.975 373.383 557.151C369.35 554.218 365.1 553.457 365.209 552.697C365.209 552.371 366.408 552.045 368.26 552.262C370.113 552.48 372.62 553.349 374.909 554.978C377.198 556.608 378.833 558.672 379.704 560.41C380.467 562.039 380.685 563.234 380.358 563.343Z" fill="black" stroke="black" stroke-width="0.75" stroke-miterlimit="10"/>
<path d="M373.672 566.133C376.734 565.923 379.177 565.17 379.127 564.452C379.077 563.733 376.554 563.322 373.492 563.532C370.429 563.742 367.987 564.495 368.037 565.213C368.086 565.932 370.609 566.343 373.672 566.133Z" fill="black" stroke="black" stroke-width="0.75" stroke-miterlimit="10"/>
<path d="M292.294 210.499C291.64 210.173 293.057 205.394 296.327 200.179C299.596 194.965 303.302 191.597 303.847 192.032C304.392 192.575 301.667 196.486 298.616 201.591C295.346 206.588 292.948 210.825 292.294 210.499Z" fill="black" stroke="black" stroke-width="0.75" stroke-miterlimit="10"/>
<path d="M298.398 301.969C298.071 301.969 297.09 296.537 296.109 287.629C295.128 278.721 294.256 266.337 294.147 252.758C294.038 239.07 294.692 226.686 295.455 217.778C296.218 208.87 297.199 203.438 297.526 203.438C297.962 203.438 297.635 208.978 297.308 217.886C296.981 226.794 296.654 239.07 296.763 252.649C296.872 266.228 297.417 278.504 297.962 287.412C298.507 296.429 298.834 301.969 298.398 301.969ZM292.076 321.306C292.185 321.632 289.133 323.153 283.793 324.782C282.485 325.217 280.959 325.543 279.324 325.869C277.689 326.303 275.946 326.52 274.202 326.846C270.496 327.389 266.463 327.824 262.213 327.824C257.962 327.824 253.93 327.607 250.224 327.064C248.371 326.738 246.627 326.52 245.101 326.195C243.466 325.869 242.05 325.543 240.633 325.217C235.292 323.805 232.131 322.284 232.24 321.958C232.349 321.523 235.728 322.392 241.069 323.37C242.376 323.587 243.902 323.913 245.428 324.022C247.063 324.239 248.698 324.456 250.551 324.674C254.147 325 258.071 325.217 262.213 325.217C266.354 325.108 270.278 324.891 273.875 324.456C275.619 324.239 277.362 324.022 278.888 323.696C280.523 323.479 281.94 323.153 283.248 322.936C288.697 321.849 291.967 320.98 292.076 321.306Z" fill="black" stroke="black" stroke-width="0.75" stroke-miterlimit="10"/>
<path d="M263.194 318.156C263.303 318.482 261.995 319.242 259.597 320.111C257.199 320.872 253.82 321.523 250.006 321.632C246.191 321.741 242.703 321.197 240.306 320.546C237.908 319.894 236.491 319.133 236.6 318.807C236.818 318.047 242.703 319.242 249.897 319.025C257.199 318.807 262.976 317.395 263.194 318.156ZM312.348 227.881C312.13 228.098 310.604 227.229 308.643 225.273C306.681 223.318 304.174 220.385 302.103 216.691C300.032 212.998 298.833 209.304 298.288 206.588C297.744 203.873 297.744 202.134 298.071 202.026C298.833 201.917 300.468 208.327 304.392 215.388C308.316 222.449 312.893 227.338 312.348 227.881ZM349.732 234.073C349.405 234.181 348.424 232.661 346.68 230.488C346.244 229.945 345.808 229.402 345.154 228.75C344.609 228.098 343.956 227.555 343.302 226.903C341.994 225.708 340.359 224.404 338.615 223.318C336.871 222.232 335.018 221.363 333.383 220.711C332.512 220.385 331.749 220.059 330.986 219.95C330.223 219.733 329.46 219.516 328.806 219.407C326.081 218.864 324.337 218.647 324.337 218.321C324.337 217.995 326.081 217.452 329.133 217.56C329.896 217.56 330.659 217.669 331.531 217.886C332.403 217.995 333.274 218.321 334.255 218.538C336.108 219.081 338.179 219.95 340.141 221.145C342.103 222.34 343.738 223.753 345.154 225.273C345.808 226.034 346.462 226.686 347.007 227.446C347.552 228.098 347.988 228.858 348.315 229.51C349.732 232.117 350.059 233.964 349.732 234.073Z" fill="black" stroke="black" stroke-width="0.75" stroke-miterlimit="10"/>
<path d="M351.803 236.137C351.476 236.463 350.059 235.377 347.661 234.182C346.462 233.638 344.936 233.095 343.193 232.661C341.449 232.226 339.487 232.009 337.416 232.009C333.274 232.117 329.678 233.312 327.389 234.616C327.062 234.833 326.844 234.942 326.517 235.051C326.19 235.159 325.972 235.377 325.863 235.485C325.427 235.702 325.427 235.92 325.318 235.92C325.318 236.028 325.536 236.246 325.645 236.246H325.863C325.863 236.246 325.972 236.246 325.972 236.354C325.972 236.463 325.972 236.571 325.754 236.68C325.427 236.897 324.882 237.006 324.446 236.463C323.901 235.702 324.337 234.833 324.773 234.399C324.991 234.073 325.209 233.964 325.536 233.747C325.754 233.53 326.081 233.312 326.408 233.095C328.806 231.248 332.838 229.51 337.416 229.402C342.103 229.293 346.135 230.814 348.642 232.552C351.04 234.29 352.021 235.92 351.803 236.137ZM324.991 247.435C325.1 247.761 324.01 248.739 321.83 249.499C319.542 250.151 316.272 250.585 312.566 249.173C312.348 249.064 312.13 248.956 311.803 248.739C311.694 248.63 311.585 248.63 311.476 248.521C311.367 248.413 311.149 248.304 311.04 248.195C310.495 247.652 310.168 247 310.168 246.349C310.168 245.697 310.386 245.045 310.822 244.502C311.258 243.959 311.585 243.741 311.912 243.524C313.111 242.546 314.419 242.003 315.509 241.569C317.689 240.808 319.215 240.808 319.215 241.134C319.324 241.46 318.016 242.112 316.272 243.198C315.4 243.741 314.419 244.502 313.438 245.371C312.784 245.914 312.893 245.914 312.893 246.131C313.002 246.349 313.002 246.349 313.656 246.783C313.765 246.892 313.983 246.892 314.092 247L314.637 247.218C314.964 247.326 315.4 247.435 315.727 247.435C316.381 247.544 317.144 247.652 317.798 247.761C319.106 247.869 320.414 247.869 321.394 247.761C323.465 247.435 324.773 247.109 324.991 247.435Z" fill="black" stroke="black" stroke-width="0.75" stroke-miterlimit="10"/>
<path d="M334.147 239.939C334.473 239.939 335.018 241.351 335.454 243.633C335.563 244.176 335.672 244.828 335.781 245.588C335.89 246.131 336.108 247.761 335.236 248.738C334.8 249.282 334.256 249.499 333.602 249.608C333.275 249.608 332.948 249.608 332.512 249.499C332.294 249.499 332.185 249.39 331.967 249.39L331.64 249.282C330.659 248.956 329.787 248.521 329.024 247.869C327.389 246.674 326.19 245.045 325.536 243.415C324.882 241.786 324.555 240.265 324.664 238.961C324.773 236.354 325.863 235.051 326.081 235.159C326.517 235.268 326.081 236.68 326.517 238.853C326.735 239.939 327.062 241.134 327.716 242.329C328.37 243.524 329.351 244.719 330.659 245.697C331.313 246.131 331.967 246.566 332.621 246.783L332.839 246.892H333.057C333.166 246.892 333.275 246.892 333.384 246.783C333.493 246.674 333.493 246.566 333.493 246.457V243.741C333.602 241.46 333.711 239.939 334.147 239.939ZM353.547 246.023C352.784 245.914 352.566 243.307 351.476 240.482C350.495 237.549 349.078 235.376 349.514 234.833C349.732 234.616 350.495 234.833 351.367 235.702C352.239 236.463 353.22 237.875 353.874 239.613C354.528 241.351 354.637 243.089 354.419 244.284C354.31 245.371 353.874 246.131 353.547 246.023Z" fill="black" stroke="black" stroke-width="0.75" stroke-miterlimit="10"/>
<path d="M349.623 243.415C349.841 243.633 349.405 244.61 348.206 245.588C347.552 246.131 346.68 246.566 345.699 246.892C344.718 247.218 343.52 247.435 342.212 247.435C341.013 247.435 339.814 247.218 338.833 246.783C337.852 246.349 336.98 245.914 336.326 245.371C335.018 244.285 334.691 243.415 334.909 243.09C335.236 242.764 335.999 243.198 337.307 243.741C338.506 244.176 340.359 244.719 342.321 244.719C344.283 244.719 346.026 244.285 347.334 243.85C348.533 243.524 349.405 243.09 349.623 243.415ZM220.687 191.814C220.469 192.032 216.11 188.772 209.679 182.58L207.173 180.082C206.301 179.213 205.429 178.235 204.557 177.366C202.704 175.519 200.96 173.346 199.107 171.065C195.402 166.503 191.478 161.397 187.772 155.639C184.067 149.99 180.906 144.341 178.29 139.018C176.982 136.411 175.783 133.912 174.802 131.414C174.257 130.219 173.712 129.024 173.276 127.937L171.969 124.678C168.808 116.314 167.609 110.99 167.936 110.882C168.372 110.773 170.225 115.879 173.712 123.918C174.148 124.896 174.584 125.982 175.129 127.068C175.674 128.155 176.219 129.241 176.764 130.436C177.854 132.826 179.162 135.216 180.47 137.823C183.195 142.929 186.355 148.469 190.061 154.118C193.767 159.659 197.472 164.873 201.069 169.436C202.922 171.717 204.557 173.89 206.301 175.736C207.173 176.714 207.935 177.692 208.698 178.561L210.987 181.168C216.982 187.795 221.014 191.488 220.687 191.814ZM239.325 153.901C239.325 154.227 234.311 153.684 226.9 150.533C223.194 149.012 218.943 146.731 214.584 143.689C210.224 140.756 205.647 137.063 201.287 132.826C192.459 124.352 185.701 115.77 180.688 109.578C178.181 106.536 176.328 103.929 175.129 101.974C173.93 100.018 173.494 98.9321 173.712 98.8235C173.93 98.7148 174.584 99.6925 176.001 101.431C177.418 103.169 179.489 105.45 182.105 108.492C187.445 114.358 194.421 122.723 203.031 130.979C207.391 135.107 211.75 138.801 215.892 141.734C220.142 144.776 224.066 147.057 227.663 148.795C234.638 152.271 239.434 153.466 239.325 153.901ZM145.375 96.4335C145.702 96.2162 146.574 96.9767 147.882 97.9544C149.19 98.9321 151.042 100.127 153.331 101.105C155.62 101.974 157.8 102.408 159.435 102.517C161.07 102.734 162.159 102.734 162.268 103.06C162.377 103.386 161.397 104.038 159.544 104.364C158.672 104.581 157.473 104.581 156.274 104.472C155.075 104.364 153.658 104.038 152.35 103.495C151.042 102.952 149.844 102.3 148.863 101.539C147.882 100.779 147.119 100.018 146.574 99.258C145.375 97.7371 145.048 96.5421 145.375 96.4335ZM162.922 88.7205C163.14 88.9377 162.922 90.1327 161.615 91.9795C160.961 92.8486 159.98 93.9349 158.454 94.5867C157.691 94.9126 156.819 95.0213 155.947 95.0213C155.075 95.0213 153.985 94.6953 153.113 94.1522C152.241 93.5004 151.587 92.5227 151.369 91.6536C151.151 90.6759 151.26 89.8068 151.369 89.0464C151.696 87.5255 152.241 86.4392 152.568 85.5701C153.331 83.8319 153.549 82.6369 153.876 82.6369C154.094 82.6369 154.312 82.9629 154.421 83.506C154.53 84.1578 154.53 85.0269 154.421 86.1133C154.312 87.1996 153.985 88.3946 153.876 89.4809C153.876 90.0241 153.876 90.5673 153.985 91.0018C154.094 91.4363 154.421 91.8709 154.748 92.0881C155.511 92.6313 156.819 92.7399 157.8 92.414C158.781 92.0881 159.653 91.4363 160.416 90.8931C161.615 89.4809 162.595 88.5032 162.922 88.7205ZM171.969 98.4975C171.206 98.6062 170.116 94.1522 167.827 89.0464C165.647 83.9406 163.031 80.1384 163.576 79.5952C163.903 79.3779 164.884 80.0297 166.192 81.5506C167.5 82.9628 169.026 85.2442 170.225 87.96C171.424 90.6759 172.078 93.3917 172.296 95.3472C172.514 97.1939 172.296 98.3889 171.969 98.4975ZM152.35 70.4699C152.132 70.7958 150.28 69.4922 147.337 67.6455C145.811 66.7764 143.958 65.7987 141.887 64.821L140.252 64.1691C139.707 63.9519 139.053 63.7346 138.618 63.626C138.073 63.5173 137.528 63.4087 137.092 63.4087C136.547 63.4087 136.111 63.626 136.002 63.7346C135.893 63.8432 135.784 63.9519 135.893 64.1691C135.893 64.495 136.329 65.0382 136.547 65.5814C137.092 66.6677 137.746 67.6454 138.4 68.5145C139.707 70.3613 141.124 71.8822 142.323 73.0772C144.83 75.4671 146.683 76.7707 146.465 77.0966C146.356 77.4225 144.067 76.7707 141.124 74.4894C139.598 73.403 137.964 71.8822 136.438 70.0354C135.675 69.0577 134.912 67.9713 134.258 66.885C133.931 66.3418 133.495 65.7987 133.277 64.821C132.95 63.8432 133.277 62.431 134.258 61.6706C135.239 60.9101 136.111 60.8015 136.983 60.8015C137.855 60.8015 138.618 60.9101 139.271 61.1274C140.034 61.3447 140.579 61.6706 141.233 61.8879C141.778 62.1051 142.323 62.431 142.868 62.6483C145.048 63.7346 146.792 64.9296 148.318 66.1246C151.26 68.4059 152.568 70.2527 152.35 70.4699ZM143.086 98.1716C143.195 98.1716 143.304 98.8234 142.759 99.5839C142.214 100.344 140.906 101.322 139.162 101.431C138.291 101.539 137.201 101.322 136.22 100.779C135.239 100.344 134.367 99.4753 133.713 98.6062C133.059 97.6285 132.623 96.5421 132.296 95.3472C132.078 94.1522 131.969 92.8486 132.078 91.6536C132.296 89.155 132.95 87.091 133.386 85.1356C133.931 83.1801 134.367 81.5506 134.803 80.0297C135.021 79.2693 135.348 78.5089 135.893 77.9657C136.438 77.3139 137.201 77.0966 137.746 77.0966C138.291 77.0966 138.726 77.3139 138.835 77.5312C139.053 77.7484 139.053 77.9657 138.944 77.9657C138.835 78.0743 138.4 77.8571 137.855 78.0743C137.201 78.2916 136.874 78.9434 136.765 80.4643C136.547 81.9851 136.22 83.7233 135.893 85.6787C135.566 87.6341 135.021 89.8068 134.803 91.8708C134.585 93.9349 134.912 95.8903 135.784 97.3026C136.22 97.9544 136.765 98.6062 137.31 98.9321C137.855 99.3666 138.509 99.4752 139.162 99.5839C140.361 99.6925 141.451 99.258 141.996 98.9321C142.65 98.4975 142.868 98.1716 143.086 98.1716Z" fill="black" stroke="black" stroke-width="0.75" stroke-miterlimit="10"/>
<path d="M145.375 97.0853C144.612 96.7594 145.702 92.8485 145.484 87.96C145.375 83.0715 144.067 79.1606 144.721 78.8347C145.048 78.7261 145.811 79.4865 146.574 81.116C147.337 82.7455 147.991 85.1355 148.1 87.8514C148.209 90.5672 147.664 93.0658 147.01 94.6953C146.465 96.3248 145.702 97.1939 145.375 97.0853Z" fill="black" stroke="black" stroke-width="0.75" stroke-miterlimit="10"/>
<path d="M144.612 92.1966C144.939 92.4139 144.939 93.0657 144.176 94.0434C143.522 94.9125 141.996 95.7815 140.361 95.7815C138.618 95.8902 137.201 95.1297 136.438 94.2607C135.675 93.3916 135.675 92.6311 135.893 92.5225C136.22 92.3052 136.765 92.5225 137.528 92.7398C138.291 92.9571 139.271 93.1743 140.361 93.1743C141.451 93.1743 142.432 92.8484 143.086 92.6311C143.74 92.1966 144.176 91.9794 144.612 92.1966ZM143.849 84.4836C144.067 84.8095 143.74 85.3527 142.977 85.8958C142.214 86.439 140.906 86.7649 139.489 86.7649C138.073 86.6563 136.874 86.1131 136.111 85.4613C135.348 84.8095 135.239 84.2663 135.457 83.9404C135.893 83.3972 137.637 83.9404 139.707 84.0491C141.669 84.1577 143.522 83.8318 143.849 84.4836ZM17.0932 160.745C16.8752 160.745 16.4392 158.681 15.6763 154.987C14.9134 151.294 14.0415 145.753 13.0605 139.018C10.9897 125.547 8.48296 106.862 6.30315 86.2217C4.12334 65.5813 2.59747 46.7875 1.83453 33.2083C1.39857 26.3643 1.18058 20.9326 1.07159 17.1304C0.962598 13.3282 0.962605 11.1556 1.18059 11.1556C1.39857 11.1556 1.72552 13.2196 2.0525 17.0218C2.48846 20.824 3.03341 26.2557 3.68735 33.0997C4.99524 46.6789 6.73911 65.364 9.02791 86.0045C11.2077 106.645 13.4965 125.33 15.0224 138.801C15.7853 145.536 16.4392 151.076 16.8752 154.878C17.2022 158.572 17.3112 160.745 17.0932 160.745ZM185.919 150.207C185.701 150.207 185.374 148.252 184.939 144.558C184.503 140.865 183.958 135.542 183.413 129.024C182.323 115.879 181.015 97.737 180.252 77.6397C179.38 57.5423 179.162 39.4004 179.162 26.1471C179.162 19.5204 179.271 14.1973 179.38 10.5038C179.489 6.81019 179.707 4.74616 179.816 4.74616C180.034 4.74616 180.143 6.81019 180.361 10.5038C180.579 14.1973 180.797 19.5204 181.015 26.0385C181.451 39.1832 182.105 57.3251 182.868 77.4224C183.74 97.5197 184.612 115.662 185.265 128.806C185.592 135.433 185.81 140.756 185.919 144.341C186.137 148.143 186.137 150.207 185.919 150.207ZM173.93 150.859C173.93 151.076 171.86 151.402 168.263 151.728C164.666 152.054 159.217 152.597 152.568 153.249C139.38 154.335 121.07 155.748 100.798 157.051C90.6617 157.703 81.0706 158.355 72.2424 158.681C63.4141 159.007 55.5668 159.115 48.9184 158.898C42.27 158.681 36.9294 158.246 33.2238 157.812C29.5181 157.377 27.5563 156.943 27.5563 156.725C27.5563 156.291 35.7306 157.16 49.0274 157.051C55.6758 157.051 63.5231 156.725 72.2424 156.291C80.9616 155.748 90.5527 155.096 100.689 154.444C120.852 153.14 139.162 152.054 152.459 151.402C159.108 151.076 164.448 150.859 168.154 150.75C171.86 150.642 173.93 150.75 173.93 150.859ZM171.206 2.68212C171.206 2.89938 168.917 3.00801 164.884 3.11665C160.743 3.22528 154.857 3.22526 147.555 3.33389C132.95 3.44253 112.678 3.55116 90.3348 3.87706C67.9917 4.20297 47.7195 4.74614 33.1148 5.07205C25.8124 5.28931 19.8179 5.39797 15.7853 5.39797C11.6437 5.39797 9.46386 5.39796 9.35487 5.18069C9.24588 4.96342 11.6437 4.74616 15.6763 4.31163C19.8179 3.98572 25.7035 3.55118 33.0058 3.11665C47.6105 2.24757 67.8827 1.48711 90.3348 1.16121C112.678 0.835309 132.95 1.05259 147.664 1.37849C154.966 1.59576 160.961 1.81304 164.993 2.0303C168.917 2.24757 171.206 2.46485 171.206 2.68212ZM151.151 15.6096C151.26 15.7182 150.171 17.1304 148.209 19.629C146.138 22.2362 143.195 25.9298 139.271 30.6011C138.291 31.796 137.31 32.991 136.22 34.2946L134.585 36.25C134.04 36.9019 133.386 37.6623 132.623 38.3141C131.86 38.9659 130.77 39.6177 129.571 39.5091C129.244 39.5091 128.917 39.4004 128.699 39.4004C128.372 39.2918 128.154 39.1832 127.828 39.0745C127.283 38.7486 126.847 38.3141 126.52 37.8796C125.757 37.0105 125.321 36.0328 124.885 35.1637C124.667 34.7292 124.449 34.2946 124.122 33.8601C124.013 33.6428 123.904 33.4256 123.686 33.3169L123.468 33.0997C123.468 32.991 123.359 32.991 123.359 32.991C123.141 32.7738 123.032 32.6651 122.705 32.5565H122.378L122.269 32.8824C121.942 33.7515 121.724 34.6205 121.397 35.4896C120.634 37.6623 119.98 39.835 119.217 42.1163C118.454 44.3976 117.691 46.6789 116.928 49.0689C116.493 50.2638 116.057 51.6761 114.858 52.7624C114.531 52.9797 114.204 53.3056 113.768 53.5229C113.332 53.7401 112.896 53.8488 112.46 53.8488H111.152C110.934 53.7401 110.825 53.7402 110.716 53.7402C110.607 53.7402 110.498 53.5229 110.498 53.5229L110.389 53.8488C110.28 54.1747 110.171 54.6092 110.062 54.9351C109.626 56.2387 109.299 57.5423 108.863 58.8459C108.1 61.5618 107.228 64.2776 106.465 66.9935C104.831 72.5338 103.196 78.2915 101.452 84.1577C97.8551 96.3247 94.0405 109.252 90.0078 122.506C89.2449 124.895 88.5909 127.285 87.828 129.675C84.1223 115.553 80.4166 101.974 77.0379 89.1548C76.275 86.3304 75.5121 83.5059 74.5311 80.8987C74.3132 80.2469 73.9862 79.5951 73.6592 79.0519C73.5502 78.726 73.3323 78.4001 73.2233 78.1828L73.0053 77.8569L72.8963 77.7483C72.7873 77.531 72.6783 77.4224 72.5693 77.2051L72.4603 77.0965V76.9878V77.0965L72.3513 77.4224C70.6075 82.7454 68.9727 87.9599 67.3378 92.957C65.8119 91.6534 64.3951 90.4585 62.9782 89.2635L62.6512 88.9376C62.6512 88.9376 62.5422 88.829 62.5422 88.9376V89.2635C62.4332 89.5894 62.4332 90.0239 62.3242 90.3498C61.7793 93.6088 61.2343 96.7592 60.4714 99.6924C59.7085 102.625 58.9455 105.45 58.0736 108.166C57.6377 109.469 57.2017 110.773 56.6567 112.077C56.3297 112.946 56.0028 113.815 55.6758 114.793C55.4578 115.227 55.3488 115.662 55.1309 116.096L54.9129 116.748L54.6949 117.182C54.2589 116.313 53.823 115.444 53.278 114.575C53.06 114.141 52.8421 113.815 52.6241 113.38C52.5151 113.163 52.4061 113.054 52.2971 112.837L52.0791 112.511C51.4252 111.642 50.6623 110.773 49.8993 110.013C49.1364 109.252 48.3735 108.6 47.5015 107.949C47.2835 107.84 47.0656 107.623 46.8476 107.514C46.7386 107.405 46.6296 107.297 46.4116 107.297L45.9757 107.079C45.8667 107.079 45.8667 106.971 45.7577 106.971L45.6487 107.188C43.5779 110.23 41.834 112.946 40.4171 115.118C38.8913 117.4 37.6924 119.138 36.9294 120.224C36.0575 121.419 35.6216 121.962 35.6216 121.962C35.6216 121.962 35.8396 121.202 36.6025 120.007C37.3654 118.812 38.3463 116.965 39.7632 114.575C40.4171 113.38 41.1801 112.077 42.052 110.664C42.488 109.904 42.9239 109.252 43.3599 108.492C43.9049 107.623 44.4498 106.645 45.1037 105.667L45.3217 105.233C45.3217 105.124 45.4307 105.233 45.5397 105.233L45.7577 105.341C46.0846 105.559 46.3026 105.667 46.6296 105.885C46.9566 106.102 47.2835 106.21 47.5015 106.428C47.7195 106.536 47.9375 106.754 48.1555 106.862C49.0274 107.514 49.8993 108.166 50.7712 108.926C51.6432 109.687 52.4061 110.556 53.169 111.533L53.605 112.077C53.714 112.185 53.823 112.294 53.823 112.511C54.0409 112.728 54.15 113.054 54.2589 113.272C54.2589 113.38 54.3679 113.272 54.3679 113.163L54.4769 112.946L54.6949 112.511L55.0219 111.533C55.4578 110.23 55.8938 109.035 56.3298 107.623C57.2017 105.015 57.8556 102.191 58.6186 99.2578C59.2725 96.3247 59.8175 93.283 60.2534 90.0239C60.3624 88.829 60.5804 87.5254 60.6894 86.2217L60.7984 85.244L60.9073 84.7009V84.5922L61.0163 84.7009L61.2343 84.8095C61.7793 85.244 62.3242 85.6786 62.7602 86.1131C63.6321 86.8735 64.613 87.634 65.485 88.3944L66.1389 88.9376C66.7928 86.9822 67.3378 85.0268 67.9917 82.9627C68.4277 81.6591 68.7547 80.3555 69.1906 79.0519L69.8446 77.0965L70.3895 75.467C70.6075 74.9238 70.7165 74.3806 70.9345 73.8375L71.4794 72.3166C71.4794 72.2079 71.5884 71.9907 71.5884 71.9907L71.9154 72.3166L72.4603 72.9684L73.5502 74.272C73.8772 74.7065 74.2042 75.1411 74.5311 75.6842L74.9671 76.4447L75.1851 76.7706L75.2941 76.9878C75.5121 77.3137 75.6211 77.6396 75.839 77.9655C76.166 78.6173 76.493 79.2691 76.82 80.0296C77.9099 82.8541 78.6728 85.6786 79.4357 88.5031C82.1605 98.4974 84.9942 109.035 87.937 120.007L88.2639 119.029C91.9696 106.754 95.5663 94.8038 98.945 83.5059C100.689 77.6396 102.433 71.882 104.068 66.4503C104.939 63.7345 105.702 61.0186 106.574 58.3028C107.01 56.9992 107.337 55.6955 107.773 54.3919C108.1 53.4142 108.318 52.5451 108.645 51.6761L109.081 50.0466C109.081 49.8293 109.19 49.938 109.19 49.938C109.19 49.938 109.299 49.938 109.299 49.8293L109.408 49.7207L109.517 49.5034L109.626 49.2861L109.735 48.9602C110.607 50.4811 111.261 51.6761 111.588 51.6761H112.242C112.46 51.6761 112.678 51.5675 112.787 51.5675C113.005 51.4588 113.114 51.3502 113.332 51.2415C113.986 50.5897 114.531 49.612 114.858 48.4171C115.73 46.0271 116.492 43.7458 117.255 41.5731C118.018 39.2918 118.781 37.1191 119.544 35.0551C119.762 34.5119 119.871 33.9687 120.089 33.4256C120.198 33.0997 120.525 32.0133 120.852 31.3615L121.397 30.3838C121.724 30.3838 122.16 30.4924 122.487 30.6011C122.814 30.7097 123.25 30.8183 123.577 31.0356C123.904 31.1442 124.231 31.4701 124.558 31.796C125.212 32.4479 125.43 32.8824 125.757 33.3169C125.975 33.7515 126.302 34.2946 126.52 34.7292C126.956 35.5983 127.392 36.5759 127.936 37.2278C128.481 37.8796 129.026 38.2055 129.789 38.3141C130.443 38.3141 131.206 37.9882 131.86 37.5536C132.514 37.0105 133.059 36.3587 133.604 35.7069C134.149 35.0551 134.803 34.4033 135.348 33.7514C136.438 32.4478 137.528 31.2529 138.509 30.1665C142.541 25.6039 145.702 22.019 147.882 19.5204C149.844 16.8046 151.151 15.6096 151.151 15.6096Z" fill="black" stroke="black" stroke-width="0.75" stroke-miterlimit="10"/>
<path d="M147.555 28.5371C147.228 28.4285 147.664 26.799 148.645 24.3004C149.081 23.1054 149.735 21.5846 150.498 19.9551C150.825 19.1946 151.26 18.3255 151.696 17.4565L152.677 15.5011C152.786 15.3924 152.895 15.1752 152.895 15.0665H151.369C150.933 15.0665 150.607 15.0665 150.171 15.1752C148.645 15.2838 147.337 15.2838 146.138 15.2838C143.849 15.2838 142.541 15.1751 142.432 14.8492C142.432 14.5233 143.74 14.0888 145.92 13.6543C147.01 13.437 148.318 13.2197 149.844 12.8938C150.171 12.7852 150.607 12.7852 151.042 12.6766C151.26 12.6766 151.478 12.5679 151.587 12.5679C151.914 12.5679 152.241 12.4593 152.568 12.4593C153.985 12.242 155.511 12.1334 157.037 11.9161C156.492 13.0025 155.947 14.1974 155.293 15.3924C154.748 16.4788 154.203 17.6737 153.658 18.6514C153.222 19.5205 152.786 20.281 152.35 21.0414C151.478 22.5623 150.716 23.9745 150.062 25.0608C148.863 27.3422 147.882 28.6458 147.555 28.5371ZM30.499 56.8907C30.717 56.6734 31.5889 58.1943 34.2047 59.3892C35.5126 60.041 37.1475 60.4756 39.1093 60.5842C41.0711 60.6928 43.3599 60.4756 45.6487 59.4979C50.3353 57.7597 54.259 52.5453 55.1309 45.9186C55.5669 42.6596 55.4579 39.0747 54.5859 35.5984C53.605 32.2307 51.8612 28.7544 48.9184 26.5817C47.5015 25.4954 45.7577 24.9522 44.0139 24.735C42.27 24.5177 40.4172 24.7349 38.7823 25.1695C35.4036 26.0386 32.3519 27.994 30.0631 30.2753C27.7743 32.6652 26.3574 35.4897 25.7035 38.3142C25.0495 41.1387 25.2675 43.9632 25.8125 46.3531C27.0114 51.2417 29.7361 54.718 31.9159 56.3475C33.0058 57.1079 34.2047 57.2166 34.7497 56.9993C35.4036 56.782 35.5126 56.3475 35.6216 56.3475C35.7306 56.3475 35.7306 56.8907 34.9677 57.4338C34.2047 57.8684 32.7879 57.8683 31.371 57.2165C31.044 56.9993 30.6081 56.782 30.2811 56.5647C29.9541 56.2388 29.6271 56.0216 29.3001 55.6957C28.6462 55.0439 27.8833 54.2834 27.2293 53.4143C25.9214 51.6762 24.6136 49.5035 23.9596 46.7877C23.1967 44.1804 22.8697 41.0301 23.5237 37.771C24.0686 34.512 25.7035 31.253 28.2102 28.5371C30.717 25.8213 34.0957 23.54 38.0194 22.5623C39.9812 22.0191 42.052 21.8018 44.2318 22.0191C46.4117 22.2364 48.5915 22.9968 50.4443 24.3004C52.2972 25.604 53.714 27.3422 54.8039 29.0803C55.8938 30.9271 56.6567 32.7739 57.0927 34.7293C58.0736 38.6401 58.1826 42.4423 57.6377 46.0272C57.0927 49.6122 55.6759 52.9798 53.605 55.587C51.6432 58.1943 49.0274 60.1497 46.3027 61.0187C43.6869 61.9964 41.0711 62.1051 38.8913 61.8878C36.7115 61.6706 34.8587 60.9101 33.5508 60.041C33.2238 59.8238 32.8968 59.6065 32.6789 59.3892C32.4609 59.172 32.1339 58.9547 31.9159 58.7374C31.48 58.3029 31.153 57.977 30.935 57.6511C30.608 57.3252 30.3901 56.9993 30.499 56.8907Z" fill="black" stroke="black" stroke-width="0.75" stroke-miterlimit="10"/>
<path d="M38.0193 43.2028C37.4744 42.6596 39.8722 39.1833 42.7059 34.8379C45.6487 30.4926 47.9375 26.9077 48.5914 27.2336C49.2454 27.5595 47.9375 31.7962 44.8858 36.3588C41.943 40.8128 38.4553 43.746 38.0193 43.2028Z" fill="black" stroke="black" stroke-width="0.75" stroke-miterlimit="10"/>
<path d="M36.8327 52.7642C37.1813 57.9724 38.0481 62.1557 38.7688 62.1078C39.4896 62.0599 39.7913 57.7989 39.4427 52.5906C39.0942 47.3824 38.2273 43.1991 37.5066 43.247C36.7858 43.295 36.4841 47.5559 36.8327 52.7642Z" fill="black" stroke="black" stroke-width="0.75" stroke-miterlimit="10"/>
<path d="M54.0409 43.3114C54.1499 43.6373 53.387 44.2891 51.9701 44.9409C50.5532 45.5928 48.2644 46.0273 45.8666 45.9186C43.3599 45.81 41.2891 45.1582 39.8722 44.3978C38.4553 43.6373 37.8014 42.8769 37.9104 42.551C38.2373 41.8992 41.725 43.0942 45.9756 43.3114C50.3353 43.5287 53.823 42.551 54.0409 43.3114Z" fill="black" stroke="black" stroke-width="0.75" stroke-miterlimit="10"/>
<path d="M47.6833 143.375C60.0758 143.812 70.1426 143.583 70.1681 142.864C70.1937 142.144 60.1683 141.206 47.7759 140.769C35.3834 140.332 25.3166 140.561 25.291 141.281C25.2655 142 35.2909 142.938 47.6833 143.375Z" fill="black" stroke="black" stroke-width="0.75" stroke-miterlimit="10"/>
<path d="M77.9099 149.555C77.8009 150.316 69.5176 149.99 59.3815 149.881C49.2454 149.773 40.8531 150.099 40.8531 149.338C40.7441 148.578 49.0274 147.166 59.3815 147.274C69.7356 147.383 78.0189 148.904 77.9099 149.555ZM155.838 139.127C155.62 139.018 155.729 138.583 155.184 138.258C154.857 138.04 154.421 137.932 153.876 137.823C153.44 137.714 152.568 137.823 151.805 137.714C148.536 137.606 144.176 137.497 139.272 137.497C136.874 137.497 134.476 137.606 132.405 137.606C130.225 137.714 128.263 137.714 126.629 137.497C123.25 137.171 121.397 136.085 121.506 135.759C121.615 135.433 123.577 135.759 126.738 135.65C128.263 135.542 130.225 135.433 132.296 135.216C134.476 134.999 136.874 134.89 139.38 134.89C144.394 134.89 148.863 135.324 152.132 135.868C152.895 136.085 153.658 136.085 154.421 136.411C155.075 136.628 155.62 137.063 156.056 137.497C156.383 137.932 156.492 138.475 156.383 138.801C156.056 139.127 155.838 139.127 155.838 139.127ZM153.004 140.43C153.113 141.082 147.01 143.037 139.272 144.124C131.424 145.101 124.994 144.884 124.994 144.124C124.994 143.363 131.206 142.494 138.945 141.517C146.574 140.43 152.895 139.67 153.004 140.43ZM276.055 344.662C275.837 344.662 275.51 342.816 275.183 339.557C274.747 336.189 274.311 331.409 273.875 325.434C272.894 313.484 272.022 296.972 271.586 278.721C271.259 260.471 271.477 243.959 271.913 231.9C272.131 225.925 272.458 221.037 272.676 217.778C272.894 214.41 273.221 212.563 273.33 212.563C273.439 212.563 273.657 214.41 273.657 217.778C273.657 221.145 273.766 225.925 273.766 231.9C273.766 243.85 273.766 260.362 274.202 278.613C274.529 296.863 275.183 313.376 275.728 325.326C275.946 331.3 276.164 336.08 276.273 339.448C276.273 342.816 276.273 344.662 276.055 344.662ZM444.99 212.563C444.99 212.781 442.592 212.889 438.232 213.106C433.873 213.324 427.66 213.432 419.813 213.65C404.336 213.976 382.865 214.301 359.214 214.41C347.334 214.41 336.108 214.519 325.863 214.519C315.618 214.519 306.354 214.519 298.616 214.301C290.877 214.084 284.556 213.432 280.196 212.781C279.106 212.672 278.125 212.455 277.362 212.346C276.6 212.237 275.619 212.02 275.292 211.368C275.183 211.042 275.183 210.716 275.401 210.608C275.619 210.499 275.837 210.608 275.946 210.717C276.054 210.717 276.055 210.825 276.163 210.825C276.272 210.825 276.273 210.934 276.273 210.934C276.273 210.934 276.273 211.042 276.273 210.934L276.382 210.825C276.382 210.716 276.382 210.608 276.273 210.608C276.164 210.499 275.946 210.499 275.837 210.499C275.619 210.499 275.619 210.825 275.728 211.042C276.055 211.477 276.599 211.586 277.471 211.586C278.343 211.694 279.215 211.694 280.305 211.803C284.665 212.129 290.877 212.455 298.616 212.455C306.354 212.455 315.618 212.237 325.863 212.129C336.108 212.02 347.443 211.911 359.214 211.803C382.865 211.694 404.336 211.694 419.813 211.803C427.551 211.911 433.873 212.02 438.232 212.129C442.592 212.237 444.99 212.346 444.99 212.563ZM443.137 346.726C442.919 346.726 442.701 344.88 442.483 341.512C442.265 338.144 441.938 333.256 441.72 327.172C441.284 315.114 440.957 298.384 441.175 279.916C441.393 261.449 442.156 244.719 442.919 232.661C443.355 226.577 443.682 221.797 444.009 218.43C444.336 215.062 444.663 213.215 444.772 213.215C444.99 213.215 444.99 215.062 444.99 218.43C444.99 221.797 444.881 226.686 444.772 232.769C444.445 244.828 444.118 261.557 443.791 279.916C443.573 298.384 443.573 315.005 443.573 327.064C443.573 333.147 443.573 338.036 443.464 341.403C443.464 344.88 443.355 346.726 443.137 346.726Z" fill="black" stroke="black" stroke-width="0.75" stroke-miterlimit="10"/>
<path d="M438.014 335.863C438.014 336.08 435.726 335.972 431.584 335.863C427.442 335.863 421.557 335.863 414.254 336.406C406.952 336.949 398.233 337.601 388.533 338.362C378.833 339.013 368.151 339.774 357.034 340.534C334.691 342.055 314.419 343.25 299.814 344.011C292.512 344.336 286.518 344.662 282.485 344.771C278.343 344.88 276.055 344.88 276.055 344.662C276.055 344.445 278.343 344.119 282.376 343.685C286.409 343.25 292.403 342.707 299.705 342.055C314.31 340.86 334.582 339.339 356.925 337.818C368.151 337.058 378.723 336.406 388.424 335.863C398.124 335.32 406.843 334.777 414.145 334.451C421.557 334.233 427.442 334.342 431.584 334.777C435.726 335.211 438.014 335.646 438.014 335.863ZM322.811 236.137C322.92 236.463 322.593 237.006 321.613 237.44C320.632 237.875 319.215 237.875 317.798 237.223C316.381 236.571 315.4 235.485 315.073 234.507C314.746 233.53 314.855 232.878 315.182 232.769C315.509 232.661 315.945 232.986 316.599 233.421C317.144 233.856 317.907 234.399 318.888 234.725C319.869 235.159 320.741 235.376 321.395 235.485C322.048 235.702 322.702 235.811 322.811 236.137ZM266.79 151.728C267.117 151.728 267.553 153.901 266.463 157.269C265.918 158.898 264.937 160.853 263.412 162.7C261.886 164.547 259.488 166.068 256.763 166.72C255.346 167.046 253.929 167.046 252.513 166.828C251.205 166.611 250.006 166.068 248.916 165.525C246.736 164.33 245.21 162.7 244.338 161.071C243.466 159.441 243.248 157.92 243.357 156.943C243.466 155.965 243.684 155.422 243.902 155.422C244.338 155.422 244.12 157.594 245.973 160.093C246.845 161.288 248.262 162.483 250.006 163.352C250.878 163.787 251.859 164.112 252.949 164.221C254.038 164.33 255.019 164.33 256.109 164.112C258.289 163.569 260.142 162.374 261.559 160.962C262.976 159.55 263.957 157.92 264.719 156.508C266.136 153.684 266.354 151.62 266.79 151.728ZM200.306 171.391C199.652 170.956 203.467 165.199 206.301 157.377C209.134 149.555 209.788 142.712 210.551 142.712C210.878 142.712 211.205 144.45 211.096 147.383C210.987 150.207 210.333 154.118 208.807 158.246C207.282 162.374 205.32 165.851 203.685 168.132C201.941 170.413 200.524 171.608 200.306 171.391ZM327.28 202.243C327.498 203.004 322.049 204.633 316.054 208.218C310.06 211.694 306.027 215.605 305.482 215.17C305.264 214.953 305.918 213.65 307.553 211.803C309.079 210.065 311.694 207.783 314.746 205.937C317.907 204.09 321.068 202.895 323.356 202.46C325.645 201.808 327.171 201.809 327.28 202.243ZM231.477 545.527C231.695 545.853 230.714 546.939 228.644 547.7C226.573 548.46 223.303 548.786 220.033 547.374C216.764 545.853 214.911 543.137 214.148 541.181C213.385 539.117 213.603 537.705 213.93 537.597C214.366 537.488 214.802 538.683 215.783 540.312C216.873 541.833 218.617 543.789 221.123 544.984C223.63 546.179 226.246 546.179 228.208 545.961C230.061 545.635 231.259 545.201 231.477 545.527ZM342.103 536.076C342.43 536.184 342.321 537.597 341.013 539.443C340.468 540.421 339.487 541.399 338.397 542.268C337.198 543.137 335.781 543.897 334.146 544.441C332.512 544.984 330.877 545.201 329.46 545.092C327.934 544.984 326.626 544.766 325.645 544.332C323.574 543.571 322.593 542.485 322.811 542.159C323.029 541.833 324.228 542.268 326.081 542.485C327.062 542.594 328.152 542.702 329.351 542.594C330.55 542.485 331.967 542.268 333.275 541.833C334.582 541.399 335.89 540.747 336.98 540.095C338.07 539.443 338.942 538.683 339.596 538.031C341.013 537.053 341.776 535.967 342.103 536.076ZM208.807 543.68C208.916 543.789 208.807 544.006 208.48 544.223C208.153 544.549 207.5 544.549 206.846 544.441C206.192 544.332 205.538 544.006 204.775 543.789L204.557 543.68H204.23C204.121 543.68 203.903 543.789 203.903 543.897V548.786C203.903 549.981 203.903 551.284 203.794 552.371C202.159 550.85 200.633 549.22 199.434 548.134C198.671 547.374 198.017 546.83 197.363 546.287C196.273 545.31 195.729 544.549 195.838 544.332C195.947 544.115 196.927 544.223 198.344 544.984C198.671 545.201 199.107 545.31 199.434 545.635L200.088 545.961C200.306 546.07 200.524 546.287 200.633 546.287C200.96 546.505 201.178 546.613 201.396 546.722V544.658C201.396 544.44 201.396 544.115 201.505 543.789C201.614 543.246 201.832 542.702 202.159 542.268C202.486 542.051 202.704 541.725 203.031 541.616C203.358 541.507 203.685 541.399 204.012 541.507C204.23 541.507 204.339 541.507 204.557 541.616C204.775 541.616 204.884 541.725 204.993 541.725C205.102 541.833 205.32 541.833 205.429 541.942L205.756 542.159C206.519 542.594 206.955 543.028 207.391 543.246C207.826 543.463 208.044 543.68 208.262 543.68C208.48 543.571 208.698 543.571 208.807 543.68ZM356.925 549.438C357.034 549.546 357.034 549.872 356.816 550.307C356.598 550.741 356.054 551.393 355.073 551.719C354.201 552.154 352.784 552.262 351.476 551.719C350.822 551.393 350.168 550.959 349.732 550.307L349.514 550.089L349.405 549.872L349.296 549.764C349.296 549.655 349.187 549.655 349.187 549.546C349.187 549.546 349.187 549.438 349.187 549.546H349.078L348.969 549.655L348.86 549.764L348.642 549.872C348.206 550.09 347.77 550.307 347.334 550.415C346.898 550.633 346.571 550.741 345.808 550.959C344.392 551.393 343.193 551.502 342.103 551.719C341.994 550.307 342.103 548.895 342.648 547.7C342.757 547.374 342.866 547.156 343.084 546.83C343.193 546.505 343.302 546.396 343.411 546.287C343.629 545.961 343.956 545.744 344.174 545.527C345.154 544.658 345.917 544.549 346.135 544.766C346.244 544.984 345.808 545.527 345.372 546.505C345.263 546.722 345.154 547.048 345.045 547.265C344.936 547.591 344.827 547.808 344.827 547.917V548.677C344.827 548.677 344.828 548.786 344.937 548.677C345.154 548.569 345.372 548.46 345.59 548.46C345.59 548.46 346.135 548.243 346.462 548.134C346.789 548.025 347.225 547.808 347.552 547.591C348.533 547.156 350.168 545.961 351.04 545.635C351.149 546.396 351.258 547.156 351.367 547.808L351.476 548.243C351.476 548.351 351.585 548.46 351.585 548.569C351.694 548.677 351.694 548.677 351.694 548.786C351.694 548.786 351.694 548.895 351.803 548.895C352.021 549.22 352.348 549.546 352.675 549.764C353.329 550.198 354.092 550.307 354.746 550.198C355.945 549.981 356.598 549.22 356.925 549.438Z" fill="black" stroke="black" stroke-width="0.75" stroke-miterlimit="10"/>
<path d="M153.004 853.287C154.991 853.287 156.601 791.859 156.601 716.082C156.601 640.306 154.991 578.877 153.004 578.877C151.018 578.877 149.408 640.306 149.408 716.082C149.408 791.859 151.018 853.287 153.004 853.287Z" fill="black" stroke="black" stroke-width="2" stroke-miterlimit="10"/>
<path d="M267.553 566.928C328.77 566.928 378.397 565.323 378.397 563.343C378.397 561.363 328.77 559.758 267.553 559.758C206.336 559.758 156.71 561.363 156.71 563.343C156.71 565.323 206.336 566.928 267.553 566.928Z" fill="black" stroke="black" stroke-width="2" stroke-miterlimit="10"/>
<path d="M384.718 854.156C386.704 854.156 388.315 791.755 388.315 714.779C388.315 637.803 386.704 575.401 384.718 575.401C382.732 575.401 381.121 637.803 381.121 714.779C381.121 791.755 382.732 854.156 384.718 854.156Z" fill="black" stroke="black" stroke-width="2" stroke-miterlimit="10"/>
</svg>
