<svg width="296" height="350" viewBox="0 0 296 350" fill="none" xmlns="http://www.w3.org/2000/svg">
<path d="M114.971 308.961C113.644 304.843 112.248 300.654 110.922 296.536C110.294 294.651 108.548 293.674 106.594 294.093C103.871 294.651 101.358 295.628 98.9849 296.955C100.521 294.861 102.056 292.697 103.592 290.602C105.128 288.508 107.082 286.414 106.733 283.692C106.454 281.109 104.5 278.875 103.034 276.851C101.219 274.338 99.334 271.894 97.3794 269.521C89.5611 260.167 80.4863 252 71.0625 244.251C66.3157 240.342 61.5689 236.503 56.7523 232.663C51.9356 228.824 46.9096 224.566 41.3949 221.704C35.5312 218.632 30.7844 220.308 25.7584 224.007C21.3606 227.219 17.3817 230.918 13.9612 235.107C10.052 239.853 6.70137 245.089 4.25816 250.673C1.95456 255.979 0.837646 261.563 4.67698 266.45C5.37504 267.287 6.1429 267.636 6.98057 267.636C7.88805 268.125 8.86534 268.753 9.91243 269.451L10.7501 270.079C11.3086 270.498 11.9368 270.917 12.5651 271.336C13.2631 271.825 13.9612 272.243 14.5894 272.592C16.6836 273.989 18.2194 275.175 19.1268 275.873C30.1562 284.739 33.6465 290.882 42.8609 298.491C43.4193 298.909 43.9778 299.189 44.5362 299.328C44.606 299.468 44.7456 299.607 44.8852 299.747C57.4503 313.708 67.7118 329.554 75.3905 346.657C76.3678 348.821 79.3694 348.681 80.9052 347.355C86.9085 342.049 93.2608 337.372 100.102 333.254C102.475 331.858 102.056 329.066 100.521 327.6C102.196 326.064 103.871 324.598 105.686 323.202C108.409 321.038 112.108 319.502 114.482 316.989C116.925 314.546 115.878 311.823 114.971 308.961Z" fill="#A87E67"/>
<path d="M70.3645 333.812C69.5966 332.905 66.7346 329.624 63.7329 324.598C63.1744 323.621 62.7556 322.923 62.616 322.713C59.4747 317.129 53.7507 311.963 47.7473 305.541C47.7473 305.541 43.7684 301.353 32.041 287.601C31.9712 287.531 32.041 287.601 25.1302 281.807C22.8964 279.922 20.5928 278.247 18.359 276.432C17.1723 275.455 15.846 274.268 14.7989 273.989C14.7291 273.989 14.38 273.849 14.1008 273.64C13.6122 273.221 13.4726 272.593 13.4028 272.104C11.6576 270.778 9.70306 269.451 7.39946 268.125C4.74683 266.589 2.30362 265.333 0.0698242 264.425C1.04711 266.17 1.88476 267.636 2.58282 268.753C4.67701 272.383 5.65427 273.919 6.14292 274.687C6.70136 275.594 7.19002 276.292 7.46925 276.781C6.98061 278.317 7.53904 280.271 8.93516 281.179C9.84264 281.807 10.8199 282.505 11.7274 283.133C12.216 283.831 12.8443 284.25 13.5424 284.46C33.7163 302.33 48.3058 316.85 55.426 324.389C60.5218 329.834 70.4343 340.374 72.1795 343.795C72.3889 344.144 73.2265 345.819 74.9717 347.355C75.949 348.193 76.8565 348.751 77.5545 349.1C75.1113 340.863 72.4587 336.395 70.3645 333.812Z" fill="black"/>
<path d="M32.041 259.958C31.2033 258.143 29.1789 256.886 27.5734 255.7C25.0604 253.815 22.3379 252.279 19.4061 251.023C17.2421 250.045 15.0781 250.813 14.3102 253.117C13.9612 254.164 13.8216 255.211 13.7518 256.188C12.4255 257.375 11.7972 259.539 13.4028 261.284C15.7762 263.937 18.2194 266.589 20.7324 269.172C21.5003 270.01 22.4077 270.289 23.2454 270.289C24.4321 272.174 26.9451 272.802 28.6903 271.057C30.3656 269.382 31.9712 267.636 33.4371 265.821C35.3219 263.657 33.9955 260.865 32.041 259.958ZM106.384 255.49C104.569 252.489 102.405 249.766 99.8925 247.323C99.0548 246.485 98.0775 246.276 97.2398 246.346C95.355 242.716 93.2608 239.156 90.6082 236.154C89.3517 234.688 87.7462 233.152 85.652 233.152C83.6276 233.152 81.4636 234.618 79.5789 235.805C76.996 236.014 74.9019 239.365 77.2753 241.738L84.5351 248.998C85.4426 249.906 86.4897 250.185 87.4669 249.976C89.4913 252.907 91.7251 255.769 94.0287 258.492C96.1927 260.935 97.7983 263.169 101.358 262.61C102.685 262.401 103.453 261.633 103.732 260.656C105.966 260.307 107.92 257.933 106.384 255.49ZM268.614 65.0593C261.354 53.9601 252.628 46.2815 251.93 45.723C245.508 40.1385 238.248 35.4615 230.43 32.0411C230.081 31.1336 229.383 30.2959 228.196 29.9469C211.582 24.3624 193.712 23.6643 176.33 24.5718C165.021 25.1303 153.434 26.8754 143.521 32.1807C132.841 35.8804 124.953 40.697 119.717 44.3967C101.009 57.7297 89.5611 76.2981 89.1423 89.7706C89.0725 91.097 88.9329 95.8438 90.1894 96.123C91.6553 96.472 94.3079 90.6083 96.1927 85.9313C96.3323 85.7917 96.4719 85.6521 96.6116 85.4427C99.0548 82.092 103.034 80.6261 106.873 79.6488C110.712 78.6715 115.459 77.2754 119.368 78.3225C120.485 78.6017 121.463 79.0205 122.44 79.579C122.44 79.6488 122.44 79.6488 122.51 79.7186C122.998 81.2543 124.255 82.1618 125.86 82.3014H126C127.256 83.4183 128.373 84.6748 129.351 85.9313C130.537 87.3274 134.167 92.1441 135.284 98.4964C136.541 105.547 133.888 110.712 134.726 110.992C135.214 111.201 136.68 109.456 140.589 101.428C140.869 101.358 141.427 101.289 141.985 101.009C143.102 100.451 144.219 99.8925 145.406 99.3341C152.666 96.5418 160.903 97.8681 168.302 99.8925C176.47 102.196 184.497 105.826 190.92 111.411C204.602 123.278 208.092 143.102 198.459 158.669C197.83 159.646 197.9 160.694 197.9 160.694C196.295 165.51 192.944 167.674 193.293 168.163C193.502 168.512 195.736 167.744 203.415 163.346C203.764 163.276 204.322 163.276 204.951 162.927C216.329 157.343 229.173 155.249 241.738 156.645C246.415 157.203 251.162 158.181 255.699 159.786C255.699 161.112 256.467 162.369 258.212 162.718C262.68 163.556 265.542 167.325 268.055 170.885C269.382 172.77 270.847 174.864 271.406 177.168C271.755 178.704 271.685 179.751 272.244 182.473C272.593 184.218 273.011 185.684 273.291 186.592C272.942 188.337 272.453 190.222 271.895 192.246C270.778 195.946 269.381 199.157 267.985 201.809C270.568 200.553 273.849 198.389 276.432 194.759C276.432 194.759 278.805 191.408 279.992 187.01C299.119 111.69 268.614 65.0593 268.614 65.0593Z" fill="#3278FF"/>
<path d="M1.46595 257.863C1.46595 257.863 1.60555 256.956 1.88477 255.281C2.02438 254.443 2.30361 253.466 2.58283 252.349C2.86206 251.232 3.2809 249.975 3.76954 248.649C4.25819 247.323 4.81663 245.857 5.51469 244.391C6.21275 242.925 6.9806 241.319 7.88807 239.784C9.70303 236.642 11.867 233.501 14.4499 230.639L15.3573 229.592L16.3346 228.545C16.9629 227.847 17.6609 227.149 18.359 226.521C19.7551 225.194 21.1512 224.008 22.5473 222.891C23.9435 221.774 25.4094 220.796 26.8055 219.959C28.2017 219.051 29.528 218.353 30.7845 217.655C31.4127 217.306 32.041 217.027 32.5994 216.748C33.2277 216.469 33.7861 216.259 34.2748 215.98C35.3219 215.491 36.2992 215.142 37.067 214.863C38.6028 214.305 39.58 214.095 39.58 214.095C39.58 214.095 38.8122 214.584 37.4161 215.491C36.718 215.98 35.8803 216.469 34.9729 217.097C34.0654 217.725 33.0183 218.493 31.9014 219.331C31.3429 219.749 30.7845 220.168 30.1562 220.657C29.5978 221.146 28.9695 221.564 28.3413 222.053C27.0848 223.03 25.8282 224.147 24.5717 225.264C23.9435 225.823 23.3152 226.451 22.687 227.009L20.8022 228.894C20.1739 229.522 19.5457 230.15 18.9175 230.849L18.0099 231.826L17.1025 232.873C15.9158 234.199 14.7291 235.665 13.6122 237.061C13.0537 237.759 12.5651 238.527 12.0066 239.225C11.518 239.923 10.9596 240.621 10.5407 241.389C9.56345 242.785 8.72575 244.251 7.88807 245.578C7.12021 246.974 6.35238 248.23 5.65431 249.487C5.02606 250.743 4.39781 251.86 3.90916 252.837C3.42052 253.885 3.00165 254.722 2.65262 255.49C1.88475 256.956 1.46595 257.863 1.46595 257.863ZM0 264.286C0 264.286 1.39611 264.844 3.69971 265.961C6.00331 267.078 9.28419 268.753 13.1235 271.057C15.0083 272.174 17.0327 273.43 19.1269 274.896C21.2211 276.362 23.385 277.898 25.6188 279.573C27.7828 281.249 30.0166 283.063 32.1806 285.018C34.3446 286.903 36.5085 288.927 38.6027 291.021C40.6969 293.116 42.7213 295.28 44.6759 297.444C46.6304 299.608 48.4454 301.841 50.1207 304.005C51.7961 306.169 53.4016 308.333 54.7977 310.427C56.2637 312.522 57.5202 314.546 58.7069 316.431C59.8936 318.316 60.8709 320.061 61.7086 321.666C62.616 323.202 63.3141 324.668 63.8725 325.785C64.431 326.902 64.8498 327.879 65.1989 328.507C65.4781 329.135 65.6177 329.484 65.6177 329.484C65.6177 329.484 64.78 328.298 63.2443 326.204C62.4764 325.157 61.5689 323.9 60.5218 322.434C59.4748 320.968 58.2881 319.363 56.9618 317.617C55.6354 315.872 54.1695 313.988 52.6338 312.033C51.098 310.078 49.3529 308.054 47.6077 305.96C45.8626 303.866 43.9778 301.771 42.0232 299.677C40.0687 297.583 38.1141 295.489 36.0199 293.465C31.9014 289.346 27.6432 285.437 23.5246 281.947C21.4305 280.201 19.4061 278.526 17.4515 276.99C15.4969 275.455 13.6122 273.989 11.867 272.732C8.37672 270.149 5.37509 268.055 3.2111 266.589C1.25653 265.123 0 264.286 0 264.286Z" fill="black"/>
<path d="M13.8914 234.688C13.8914 234.688 15.3573 235.316 17.9402 236.433C18.5684 236.712 19.2665 237.061 20.0343 237.41C20.8022 237.759 21.6399 238.178 22.4776 238.597C23.385 239.016 24.2925 239.505 25.2698 239.993C26.2471 240.482 27.2244 241.11 28.2714 241.669C29.3185 242.227 30.4354 242.855 31.5523 243.484C32.6692 244.182 33.7861 244.88 34.9729 245.578C35.5313 245.927 36.1595 246.276 36.7878 246.695C37.3462 247.113 37.9745 247.463 38.6027 247.881C39.7894 248.649 41.046 249.487 42.3025 250.394C44.7457 252.139 47.2587 253.954 49.7717 255.979C52.2847 257.864 54.728 260.028 57.1712 262.122C59.5446 264.286 61.9878 266.45 64.1518 268.684C66.4554 270.848 68.5496 273.151 70.5739 275.385L73.5057 278.736C73.9944 279.294 74.4132 279.853 74.9019 280.341C75.3905 280.9 75.8094 281.458 76.2282 281.947L78.7412 285.088C79.5091 286.135 80.2769 287.112 80.975 288.09C81.6731 289.067 82.3711 289.974 82.9994 290.882C83.6277 291.789 84.1861 292.627 84.7445 293.465C85.303 294.302 85.7916 295.07 86.2803 295.768C86.7689 296.466 87.1179 297.164 87.467 297.723C88.9329 300.096 89.7008 301.492 89.7008 301.492C89.7008 301.492 88.6537 300.306 86.9085 298.142C86.4897 297.583 86.0011 297.025 85.4426 296.327C84.8842 295.698 84.3257 295 83.6975 294.233C83.0692 293.465 82.3711 292.697 81.6731 291.859C80.975 291.021 80.2071 290.184 79.4393 289.276C78.6714 288.369 77.8337 287.461 76.9961 286.484C76.1584 285.507 75.2509 284.599 74.2736 283.552C73.785 283.064 73.3662 282.505 72.8775 282.016C72.3889 281.528 71.9002 281.039 71.4116 280.481C70.4343 279.434 69.3872 278.387 68.3401 277.339C66.2459 275.245 64.0819 273.081 61.7783 270.987C59.5446 268.823 57.1711 266.729 54.7977 264.635C52.4243 262.61 50.0509 260.446 47.6077 258.562C45.2343 256.537 42.7911 254.722 40.4177 252.838C39.231 251.93 38.0443 251.092 36.9274 250.185L35.2521 248.928C34.6936 248.51 34.1352 248.091 33.5767 247.742C32.4598 246.974 31.4127 246.206 30.3656 245.438C29.3185 244.67 28.2715 244.042 27.2942 243.344C26.3169 242.646 25.3396 242.018 24.4321 241.389C23.5246 240.761 22.687 240.203 21.8493 239.714C21.0116 239.156 20.3136 238.667 19.5457 238.248C18.8476 237.759 18.1496 237.41 17.5911 236.992C15.2177 235.526 13.8914 234.688 13.8914 234.688Z" fill="black"/>
<path d="M68.5495 325.645C68.5495 325.645 68.9684 324.808 69.806 323.342C70.2249 322.644 70.7135 321.736 71.3418 320.759C71.621 320.27 71.97 319.782 72.3191 319.223C72.6681 318.665 73.0869 318.176 73.5057 317.548C73.9246 316.989 74.3434 316.361 74.8321 315.733C75.3207 315.105 75.8093 314.546 76.298 313.918C76.7866 313.29 77.3451 312.661 77.9733 312.033C78.5318 311.405 79.16 310.777 79.7185 310.079C80.975 308.822 82.3013 307.496 83.6974 306.309C85.0936 305.052 86.5595 303.866 88.0254 302.679C89.5612 301.562 91.0969 300.445 92.7024 299.398C94.2381 298.351 95.8437 297.444 97.3794 296.536C98.1473 296.117 98.9151 295.698 99.683 295.349C100.451 294.931 101.219 294.582 101.917 294.233C102.685 293.884 103.383 293.604 104.081 293.255C104.779 292.976 105.477 292.697 106.175 292.487C106.873 292.208 107.501 291.999 108.06 291.789C108.688 291.58 109.246 291.44 109.805 291.231C110.363 291.091 110.852 290.882 111.341 290.742C111.829 290.603 112.248 290.533 112.667 290.393C114.272 289.974 115.18 289.835 115.18 289.835C115.18 289.835 114.342 290.323 112.876 291.091C112.108 291.44 111.271 291.929 110.294 292.487C109.316 293.046 108.199 293.604 106.943 294.302C105.756 295 104.43 295.768 103.104 296.536L101.009 297.793C100.311 298.212 99.6132 298.7 98.8454 299.119C97.4492 300.096 95.9135 301.074 94.4475 302.121C92.9816 303.168 91.5157 304.285 90.0498 305.332C88.5838 306.449 87.1179 307.565 85.7916 308.752C84.3955 309.869 83.0692 311.056 81.7429 312.173C81.1146 312.731 80.4864 313.359 79.8581 313.918C79.2299 314.476 78.6714 315.035 78.113 315.593C76.9961 316.71 75.8791 317.687 74.9019 318.734C73.9246 319.712 73.0171 320.619 72.2492 321.457C71.4814 322.295 70.7833 322.993 70.2249 323.621C69.1778 324.947 68.5495 325.645 68.5495 325.645ZM41.1855 292.278C41.1855 292.278 41.5346 291.44 42.1628 290.044C42.4421 289.346 42.8609 288.508 43.3496 287.531C43.559 287.043 43.8382 286.554 44.1174 285.995C44.3966 285.437 44.6758 284.879 45.0249 284.32C45.6531 283.133 46.3512 281.877 47.1889 280.62C47.9568 279.294 48.8642 277.968 49.7717 276.641C50.749 275.315 51.7263 273.849 52.7734 272.523C53.8205 271.127 54.9373 269.8 56.0542 268.404C57.2409 267.078 58.3578 265.752 59.5445 264.495C60.7312 263.239 61.918 261.982 63.1047 260.865C64.2914 259.748 65.4781 258.631 66.595 257.654L68.2703 256.188C68.8287 255.769 69.3872 255.281 69.8759 254.862C70.3645 254.443 70.8531 254.024 71.3418 253.675C71.8304 253.326 72.319 252.977 72.7379 252.628C73.5756 252 74.3434 251.441 75.0415 251.023C76.298 250.185 77.0659 249.696 77.0659 249.696C77.0659 249.696 76.5074 250.394 75.4603 251.511C74.4132 252.628 73.0171 254.304 71.2021 256.258C69.457 258.213 67.4326 260.516 65.2686 262.89C64.2215 264.146 63.1046 265.403 61.9877 266.659C60.8708 267.985 59.754 269.242 58.6371 270.568C57.5202 271.895 56.4033 273.221 55.3562 274.547C54.3091 275.874 53.1922 277.2 52.2149 278.456C50.1905 281.039 48.3058 283.413 46.7002 285.437C45.0947 287.531 43.6986 289.207 42.7911 290.393C41.8138 291.58 41.1855 292.278 41.1855 292.278ZM117.623 292.906L117.972 293.953C118.182 294.651 118.461 295.629 118.81 296.746C118.949 297.304 119.089 297.932 119.299 298.561C119.438 299.189 119.648 299.887 119.787 300.585C119.927 301.283 120.136 302.051 120.276 302.749C120.415 303.517 120.555 304.215 120.764 304.983C120.904 305.751 121.044 306.518 121.183 307.216C121.323 307.984 121.463 308.682 121.602 309.45C121.742 310.148 121.812 310.846 121.951 311.544C122.021 312.243 122.161 312.871 122.23 313.429C122.37 314.616 122.51 315.593 122.579 316.291C122.649 316.989 122.649 317.408 122.649 317.408C122.649 317.408 121.532 316.152 120.346 314.057C119.717 313.01 119.159 311.684 118.6 310.288C118.321 309.59 118.112 308.822 117.902 308.054C117.693 307.286 117.484 306.518 117.344 305.681C117.204 304.913 117.065 304.075 116.925 303.307C116.785 302.539 116.785 301.702 116.716 301.004C116.646 299.468 116.716 298.072 116.785 296.815C116.925 295.629 117.135 294.582 117.274 293.884C117.484 293.325 117.623 292.906 117.623 292.906ZM67.8515 330.951C67.8515 330.951 68.1307 331.16 68.6193 331.579C69.108 331.998 69.6664 332.556 70.3645 333.324C71.0625 334.092 71.7606 334.929 72.5285 335.977C72.8775 336.465 73.2265 337.024 73.5756 337.512L74.6227 339.188C74.9717 339.746 75.2509 340.305 75.5301 340.863L76.3678 342.538C76.8564 343.655 77.2753 344.772 77.5545 345.68C77.8337 346.657 78.0431 347.495 78.1827 348.053C78.3224 348.611 78.3224 349.03 78.3224 349.03C78.3224 349.03 78.0432 348.821 77.5545 348.402C77.0659 347.983 76.5074 347.425 75.8094 346.657C75.1113 345.889 74.4132 345.051 73.6454 344.004C73.2963 343.516 72.9473 342.957 72.5983 342.469L71.5512 340.793C71.2021 340.235 70.9229 339.676 70.6437 339.118L69.806 337.442C69.3174 336.326 68.8985 335.209 68.6193 334.301C68.3401 333.324 68.1307 332.556 67.9911 331.928C67.8515 331.3 67.8515 330.951 67.8515 330.951ZM81.0448 347.704C81.0448 347.704 81.4636 347.006 82.3013 345.889C82.7202 345.331 83.2088 344.633 83.8371 343.865C84.4653 343.097 85.0936 342.259 85.9312 341.352C86.6991 340.444 87.6066 339.537 88.514 338.49C89.4215 337.512 90.4686 336.535 91.5855 335.488C92.7024 334.511 93.8193 333.464 95.006 332.486C96.1927 331.439 97.4492 330.532 98.7057 329.554C100.032 328.647 101.289 327.67 102.615 326.832C103.871 325.924 105.198 325.157 106.524 324.389C107.85 323.621 109.037 322.923 110.294 322.364C111.48 321.736 112.667 321.178 113.784 320.689C114.342 320.48 114.831 320.2 115.32 319.991C115.808 319.782 116.297 319.572 116.785 319.433C117.693 319.084 118.461 318.804 119.159 318.595C120.485 318.176 121.253 317.967 121.253 317.967C121.253 317.967 120.625 318.455 119.508 319.223C118.391 319.991 116.785 321.108 114.831 322.504C113.854 323.202 112.807 323.9 111.759 324.668C110.643 325.436 109.526 326.274 108.339 327.041C107.152 327.879 105.966 328.787 104.709 329.624C103.453 330.532 102.196 331.439 101.009 332.347C99.7528 333.254 98.4963 334.162 97.3096 335.139L93.7495 337.861C92.6326 338.769 91.5157 339.606 90.4686 340.444C89.4215 341.282 88.4443 342.05 87.5368 342.818C85.7218 344.283 84.1861 345.47 83.0692 346.308C81.673 347.215 81.0448 347.704 81.0448 347.704Z" fill="black"/>
<path d="M93.8194 306.099C93.8194 306.099 94.2382 306.518 94.7966 307.216C95.0758 307.565 95.4947 307.984 95.8437 308.543C96.2625 309.101 96.6814 309.66 97.17 310.358C97.6587 311.056 98.0775 311.754 98.5662 312.591C99.0548 313.429 99.4737 314.267 99.8925 315.174C100.311 316.082 100.73 317.059 101.079 318.036C101.498 319.014 101.777 320.061 102.126 321.108C102.405 322.155 102.685 323.202 102.894 324.249C103.104 325.296 103.313 326.343 103.453 327.32C103.592 328.298 103.662 329.275 103.732 330.252C103.802 331.16 103.802 332.067 103.802 332.905C103.802 333.743 103.732 334.441 103.732 335.139C103.662 335.767 103.592 336.395 103.522 336.814C103.383 337.722 103.243 338.28 103.243 338.28C103.243 338.28 103.034 337.791 102.824 336.884C102.685 336.465 102.545 335.907 102.336 335.278C102.196 334.65 101.987 333.952 101.777 333.184C101.358 331.648 100.87 329.903 100.381 328.019C100.102 327.111 99.8227 326.134 99.6133 325.157L98.7756 322.225C98.4963 321.247 98.1473 320.27 97.8681 319.293C97.5889 318.316 97.2399 317.338 96.9606 316.431C96.3324 314.546 95.7739 312.801 95.2853 311.335C94.7966 309.799 94.3778 308.543 94.0986 307.635C93.9589 306.658 93.8194 306.099 93.8194 306.099ZM1.11694 267.148C1.53578 267.636 2.0244 268.055 2.44323 268.544C2.86207 269.032 3.28091 269.521 3.62994 270.01C4.39781 271.057 5.09587 272.104 5.72412 273.291C6.07315 273.849 6.35237 274.408 6.6316 275.036C6.91082 275.594 7.19007 276.222 7.39949 276.851C7.6089 277.479 7.88813 278.107 8.09755 278.666C8.30697 279.294 8.51638 279.922 8.65599 280.55L8.30696 279.992L13.1934 283.622C14.7989 284.878 16.4044 286.065 18.01 287.322C19.6155 288.578 21.1513 289.835 22.7568 291.161L27.4338 295.07L32.041 299.049L36.5086 303.168L40.9064 307.356L45.2343 311.614L49.4925 315.942L53.611 320.41C54.9374 321.945 56.3335 323.411 57.6598 324.947L61.569 329.554C62.8953 331.09 64.1518 332.696 65.4083 334.301C66.6648 335.907 67.9213 337.512 69.108 339.118C70.2947 340.723 71.4814 342.399 72.6681 344.004C73.8548 345.679 74.9717 347.355 76.0886 349.03L67.8515 340.025C66.4554 338.559 65.129 337.093 63.7329 335.558C62.3368 334.092 60.9407 332.626 59.6144 331.16L55.426 326.832C54.0299 325.436 52.6338 323.97 51.2377 322.504L46.9795 318.246L42.7213 313.988L38.3933 309.799C36.9274 308.403 35.4615 307.007 34.0654 305.611L29.6676 301.492C28.2017 300.166 26.7357 298.77 25.2698 297.374L20.8022 293.325C19.2665 291.999 17.8006 290.672 16.3347 289.276L7.25987 281.318L6.98063 281.109L6.91084 280.83C6.77122 280.201 6.70142 279.643 6.56181 279.015C6.42219 278.386 6.28256 277.828 6.14294 277.2C6.00333 276.572 5.79392 276.013 5.5845 275.385C5.37509 274.826 5.16567 274.198 4.88644 273.64C4.3978 272.453 3.83938 271.336 3.21112 270.219C2.9319 269.661 2.58285 269.102 2.23382 268.614C1.81499 268.195 1.46597 267.636 1.11694 267.148ZM41.3252 215.98C43.2798 217.097 45.2344 218.214 47.1889 219.4C49.1435 220.587 51.0282 221.774 52.913 223.03L58.5673 226.8C60.4521 228.126 62.267 229.383 64.082 230.709C64.9894 231.407 65.8969 232.035 66.8044 232.733C67.7119 233.431 68.6194 234.199 69.457 234.827C70.2947 235.456 71.1324 236.014 71.9701 236.293C72.8077 236.573 73.6454 236.642 74.4831 236.433C74.6925 236.363 74.9019 236.363 75.1113 236.293C75.3906 236.224 75.6698 236.084 75.8792 236.014C76.298 235.875 76.7867 235.595 77.2055 235.386C78.113 234.897 79.0205 234.339 79.9978 233.711C80.9751 233.082 81.9523 232.524 83.0692 231.965C84.1861 231.407 85.3728 230.988 86.6293 230.709L87.6066 230.5L88.2349 231.267L93.5401 237.48L98.7756 243.763L104.011 250.045L109.177 256.398L109.945 257.375L109.177 258.352C108.13 259.609 106.943 260.865 105.686 261.982C104.43 263.099 103.104 264.146 101.777 265.053L102.056 263.239C103.453 265.193 104.918 267.148 106.315 269.102L110.503 274.966C111.899 276.921 113.295 278.875 114.622 280.899L115.669 282.365C116.018 282.854 116.367 283.343 116.646 283.901C117.274 284.948 117.833 286.135 117.833 287.322C117.693 286.135 116.995 285.088 116.297 284.18C115.529 283.273 114.761 282.365 113.923 281.458C112.318 279.643 110.782 277.758 109.246 275.943C107.711 274.128 106.175 272.244 104.639 270.359C103.104 268.544 101.568 266.659 100.032 264.774L99.1944 263.727L100.311 262.89C101.568 261.982 102.685 260.935 103.802 259.818C104.919 258.701 105.896 257.584 106.873 256.328V258.282L101.498 252.139C99.6831 250.115 98.0077 248.021 96.1927 245.927L90.8875 239.714L85.652 233.431L87.3274 233.99C86.3501 234.199 85.4426 234.548 84.5352 234.967C83.6277 235.386 82.6504 235.944 81.6731 236.503C80.6958 237.061 79.7185 237.62 78.6016 238.178C78.0432 238.457 77.4847 238.667 76.8565 238.946C76.5075 239.086 76.298 239.155 76.0188 239.225C75.6698 239.365 75.3207 239.365 75.0415 239.435C73.7152 239.714 72.1795 239.574 70.923 239.016C69.5967 238.527 68.6194 237.759 67.7119 236.991C66.8044 236.224 65.9667 235.456 65.129 234.758C64.2914 234.06 63.3839 233.292 62.5463 232.594L57.3108 228.336L52.0055 224.147L46.7003 219.959L41.3252 215.98Z" fill="black"/>
<path d="M74.3434 240.621C74.3434 240.621 76.1584 241.18 78.6016 242.506C79.8581 243.134 81.1845 244.042 82.6504 245.019C83.3484 245.508 84.0465 246.066 84.7446 246.625C85.4426 247.183 86.1407 247.811 86.8387 248.44C87.5368 249.068 88.165 249.696 88.7933 250.394C89.4216 251.023 90.0498 251.721 90.6082 252.349C91.7251 253.675 92.7024 254.932 93.4703 256.118C95.0061 258.422 95.7739 260.167 95.7739 260.167C95.7739 260.167 95.3551 259.888 94.657 259.469C93.959 258.98 93.0515 258.352 91.9346 257.445C91.3761 257.026 90.8177 256.537 90.1894 256.049C89.5612 255.56 88.9329 255.001 88.3047 254.443C87.6764 253.885 86.9783 253.326 86.3501 252.768C85.7218 252.209 85.0238 251.581 84.3257 250.953C83.6974 250.324 82.9994 249.766 82.3711 249.138C81.7429 248.51 81.1146 247.951 80.4864 247.323L77.2055 244.042C76.298 243.065 75.5302 242.157 74.9717 241.529C74.6227 240.97 74.3434 240.621 74.3434 240.621ZM91.1667 102.545C91.1667 102.545 91.2365 103.034 91.3063 104.011C91.3761 104.918 91.5157 106.315 91.6553 108.06C91.7949 109.805 91.9346 111.969 92.144 114.412C92.2836 116.855 92.493 119.578 92.6326 122.649C92.7722 125.651 92.9817 128.932 93.1213 132.352C93.2609 135.773 93.4005 139.403 93.5401 143.172C93.6099 146.942 93.7495 150.851 93.8193 154.76C93.8892 158.739 93.8892 162.718 93.959 166.767C93.959 170.815 93.9589 174.794 93.8891 178.773C93.8891 182.752 93.7495 186.592 93.6797 190.361C93.6099 194.131 93.4703 197.761 93.3307 201.181C93.1911 204.602 93.0515 207.882 92.9119 210.884C92.7723 213.886 92.6326 216.678 92.4232 219.121C92.2836 221.564 92.144 223.728 92.0044 225.474C91.8648 227.219 91.7251 228.615 91.6553 229.522C91.5855 230.43 91.5158 230.988 91.5158 230.988C91.5158 230.988 91.5157 230.5 91.4459 229.522C91.3761 228.615 91.3063 227.219 91.2365 225.474C91.0969 221.983 90.9573 216.957 90.8177 210.954C90.7479 207.952 90.678 204.671 90.6082 201.251C90.5384 197.83 90.4687 194.2 90.4687 190.431C90.4687 186.661 90.329 182.752 90.329 178.843C90.329 174.864 90.2592 170.885 90.2592 166.906V154.969C90.2592 150.99 90.2592 147.151 90.329 143.382C90.329 139.612 90.3988 135.982 90.3988 132.562C90.3988 129.141 90.4686 125.86 90.5385 122.859C90.6083 116.855 90.7479 111.829 90.8875 108.339C90.9573 106.594 91.0271 105.198 91.0271 104.29C91.0969 103.034 91.1667 102.545 91.1667 102.545ZM136.82 105.686C136.82 105.686 136.75 106.245 136.541 107.222C136.331 108.199 136.122 109.665 135.773 111.48C135.424 113.295 135.005 115.529 134.446 118.112C133.958 120.695 133.33 123.557 132.631 126.698C131.933 129.839 131.166 133.26 130.328 136.82C129.49 140.38 128.583 144.219 127.605 148.059C126.628 151.968 125.581 156.017 124.464 160.065C123.347 164.114 122.23 168.302 121.044 172.421C119.857 176.539 118.6 180.658 117.414 184.707C116.227 188.756 114.901 192.734 113.714 196.574C112.527 200.413 111.271 204.113 110.084 207.603C109.526 209.348 108.897 211.024 108.339 212.699C107.781 214.305 107.222 215.91 106.664 217.446C105.617 220.517 104.569 223.24 103.662 225.683C102.755 228.126 101.917 230.29 101.289 232.035C100.591 233.78 100.032 235.177 99.683 236.084C99.334 236.992 99.1246 237.55 99.1246 237.55L99.5435 236.084C99.8227 235.107 100.172 233.711 100.66 231.896C101.638 228.266 103.034 223.1 104.779 216.887C105.686 213.816 106.594 210.465 107.571 206.905C108.548 203.345 109.665 199.645 110.712 195.806C112.946 188.057 115.25 179.82 117.623 171.653C119.997 163.416 122.37 155.179 124.534 147.5C125.651 143.661 126.698 139.891 127.745 136.401C128.792 132.841 129.769 129.49 130.607 126.419C132.422 120.276 133.958 115.11 135.005 111.48C135.563 109.665 135.982 108.269 136.261 107.292C136.68 106.175 136.82 105.686 136.82 105.686ZM104.5 245.717C104.5 245.717 104.849 245.368 105.547 244.81C106.245 244.251 107.222 243.344 108.548 242.227C111.131 240.063 114.831 236.922 119.229 233.222C121.463 231.337 123.836 229.313 126.349 227.219C128.862 225.055 131.515 222.821 134.307 220.447C137.029 218.074 139.891 215.631 142.753 213.188C145.615 210.744 148.547 208.162 151.409 205.649C154.271 203.066 157.203 200.553 159.995 198.04C162.788 195.527 165.58 193.014 168.302 190.64C170.955 188.197 173.538 185.894 175.981 183.66C178.424 181.426 180.728 179.332 182.892 177.377C187.15 173.468 190.71 170.187 193.223 167.953C194.48 166.836 195.457 165.929 196.155 165.301C196.853 164.672 197.202 164.393 197.202 164.393C197.202 164.393 196.923 164.742 196.295 165.44C195.736 166.138 194.829 167.185 193.712 168.442C192.595 169.698 191.269 171.304 189.663 172.979C188.895 173.887 188.058 174.794 187.15 175.772C186.243 176.749 185.265 177.726 184.288 178.773C183.311 179.82 182.264 180.937 181.147 182.054C180.03 183.171 178.913 184.358 177.726 185.544C175.423 187.918 172.91 190.361 170.327 192.944C167.674 195.457 165.021 198.11 162.229 200.623C159.437 203.205 156.575 205.788 153.643 208.371C150.711 210.884 147.779 213.467 144.848 215.91C141.985 218.423 138.984 220.727 136.192 222.96C133.33 225.194 130.607 227.358 127.954 229.383C126.628 230.36 125.372 231.337 124.115 232.314C122.859 233.222 121.602 234.129 120.485 234.967C119.299 235.805 118.182 236.642 117.135 237.41C116.018 238.178 115.04 238.876 114.063 239.574C112.109 240.901 110.433 242.087 109.037 242.995C107.641 243.972 106.524 244.67 105.756 245.159C104.918 245.438 104.5 245.717 104.5 245.717ZM114.063 255.56C114.063 255.56 114.622 255.211 115.738 254.652C116.855 254.094 118.461 253.187 120.555 252.279C124.743 250.324 130.956 247.742 138.495 245.089C142.265 243.763 146.313 242.297 150.641 240.831C154.969 239.365 159.507 237.759 164.184 236.154C173.608 232.943 183.66 229.452 193.712 225.962C203.764 222.542 213.816 219.051 223.24 215.84C227.987 214.235 232.524 212.699 236.852 211.233C241.18 209.767 245.298 208.371 249.068 207.115C252.837 205.858 256.328 204.671 259.399 203.694C262.471 202.647 265.193 201.809 267.357 201.041C269.591 200.274 271.336 199.785 272.523 199.366C273.709 199.017 274.338 198.808 274.338 198.808C274.338 198.808 273.71 199.087 272.593 199.575C271.476 200.064 269.8 200.832 267.636 201.739C263.378 203.554 257.235 206.137 249.766 209.069C246.066 210.535 242.018 212.141 237.759 213.746C233.501 215.352 228.964 217.097 224.287 218.842C219.61 220.587 214.793 222.332 209.837 224.077C204.881 225.823 199.855 227.568 194.829 229.313L179.751 234.339C174.794 236.014 169.838 237.55 165.091 239.086C160.345 240.621 155.737 242.018 151.34 243.344C146.942 244.67 142.823 245.927 138.984 247.044C135.145 248.16 131.654 249.208 128.583 250.255C125.511 251.232 122.859 252.139 120.695 252.977C118.531 253.815 116.786 254.443 115.669 254.932C114.691 255.35 114.063 255.56 114.063 255.56ZM91.1667 99.1246C91.0969 97.6587 91.1667 96.1229 91.3761 94.657C91.5856 93.1911 92.0044 91.7251 92.5628 90.2592C93.1213 88.8631 93.8193 87.467 94.5872 86.1407C95.3551 84.8143 96.3324 83.6276 97.4493 82.5107C98.4964 81.3939 99.683 80.3468 101.009 79.4393C102.266 78.5318 103.662 77.7639 105.058 77.1357C107.92 75.8792 111.061 75.1811 114.203 75.0415H115.389C115.808 75.0415 116.157 75.0415 116.576 75.1113C116.995 75.1113 117.344 75.1811 117.763 75.1811C118.182 75.2509 118.531 75.2509 118.95 75.3207C120.555 75.5999 122.161 76.0886 123.627 76.9263C125.092 77.7639 126.349 78.811 127.396 79.8581L127.815 80.277L128.024 80.4864L128.234 80.6958C128.513 80.975 128.722 81.2542 129.002 81.5335L129.769 82.4409L130.468 83.3484C131.375 84.6049 132.143 85.9312 132.771 87.3274C133.399 88.7235 133.958 90.1196 134.377 91.5855C134.795 93.0515 135.075 94.5174 135.214 96.0531C135.354 97.519 135.424 99.0548 135.284 100.521V100.591C134.935 100.94 134.307 100.8 134.167 100.381C134.377 100.73 134.935 100.66 135.075 100.381V100.451C134.865 98.985 134.586 97.5888 134.167 96.1927C133.818 94.7966 133.26 93.4703 132.701 92.144C132.143 90.8177 131.515 89.5612 130.747 88.3745C130.049 87.1877 129.211 86.001 128.304 84.954L127.605 84.1861L126.907 83.4182C126.698 83.139 126.419 82.9296 126.14 82.6504L125.93 82.4409L125.86 82.3711L125.791 82.3013L125.441 81.9523C124.394 81.0448 123.347 80.2071 122.23 79.6487C121.114 79.0902 119.927 78.7412 118.6 78.5318C118.251 78.462 117.902 78.462 117.623 78.3922C117.274 78.3224 116.925 78.3224 116.576 78.3224C116.227 78.3224 115.878 78.2526 115.529 78.3224H114.482C111.759 78.3922 109.037 78.9506 106.524 79.9279C105.268 80.4166 104.011 81.0448 102.824 81.7429C101.707 82.4409 100.521 83.2786 99.4736 84.1861C98.4265 85.0936 97.5191 86.1407 96.6116 87.1878C95.7041 88.3046 94.9362 89.4914 94.2382 90.6781C93.5401 91.9346 92.9817 93.1911 92.493 94.5872C91.8648 96.2625 91.4459 97.6587 91.1667 99.1246ZM140.45 103.243C140.45 103.243 140.52 103.173 140.659 102.964C140.799 102.824 140.938 102.545 141.218 102.266C141.776 101.638 142.614 100.73 143.94 99.8924C145.266 99.0548 147.012 98.2171 149.106 97.6587C149.664 97.519 150.153 97.4492 150.781 97.3096C151.34 97.2398 151.898 97.17 152.526 97.1002C153.783 96.9606 155.039 96.9606 156.366 97.0304C159.018 97.1002 161.88 97.519 164.812 97.9379C167.814 98.3567 170.955 98.9152 174.166 99.7528C175.772 100.172 177.377 100.73 179.053 101.358L179.332 101.498H179.402L179.541 101.568L179.681 101.638L180.239 101.917L181.426 102.405C182.194 102.824 183.031 103.243 183.799 103.662C186.871 105.407 189.803 107.571 192.455 110.084C195.038 112.597 197.272 115.529 199.087 118.531C199.994 120.066 200.832 121.672 201.46 123.208C201.809 123.976 202.089 124.813 202.438 125.651L202.856 126.907C202.996 127.326 203.136 127.675 203.275 128.164C203.485 128.932 203.694 129.7 203.834 130.537C203.973 131.375 204.183 132.213 204.253 132.981C204.462 134.586 204.602 136.192 204.602 137.727C204.671 140.799 204.392 143.731 203.834 146.313C203.345 148.966 202.577 151.27 201.809 153.294C201.041 155.318 200.134 156.924 199.366 158.32C198.598 159.646 197.9 160.624 197.411 161.322C196.923 161.95 196.644 162.299 196.644 162.299L197.202 161.182C197.621 160.484 198.11 159.367 198.668 157.971C198.947 157.273 199.296 156.505 199.575 155.667C199.715 155.249 199.855 154.76 200.064 154.341L200.483 152.875C201.041 150.851 201.53 148.547 201.809 146.034C202.089 143.521 202.158 140.729 201.949 137.867C201.809 136.401 201.6 134.935 201.321 133.469C201.251 133.12 201.181 132.701 201.111 132.352C201.041 132.003 200.972 131.654 200.832 131.235L200.204 128.932C199.994 128.234 199.715 127.466 199.436 126.768C199.087 126.07 198.808 125.302 198.459 124.534C198.11 123.836 197.761 123.068 197.342 122.37C196.993 121.672 196.574 120.904 196.155 120.276C194.41 117.484 192.385 114.831 189.942 112.527C187.569 110.224 184.916 108.13 182.054 106.524C181.356 106.105 180.658 105.756 179.96 105.407L178.843 104.849L178.285 104.569L178.145 104.5C178.075 104.5 178.145 104.5 178.145 104.5H178.075L177.796 104.36C176.33 103.732 174.794 103.173 173.328 102.685C170.327 101.777 167.255 101.079 164.393 100.451C161.461 99.8925 158.739 99.2642 156.226 98.985C154.969 98.8454 153.783 98.7756 152.596 98.7756C152.038 98.7756 151.479 98.7756 150.921 98.8454C150.432 98.8454 149.874 98.9152 149.385 98.985C147.361 99.2642 145.615 99.8226 144.289 100.521C142.963 101.149 141.985 101.847 141.357 102.405C141.078 102.685 140.799 102.894 140.659 103.034C140.589 103.173 140.45 103.243 140.45 103.243ZM200.134 164.393C200.134 164.393 200.483 164.184 201.041 163.835C201.67 163.486 202.577 162.927 203.764 162.299C206.137 161.043 209.697 159.437 214.165 158.041C214.723 157.901 215.282 157.692 215.84 157.482C216.399 157.343 217.027 157.133 217.585 156.994C218.772 156.645 220.098 156.366 221.355 156.086C223.938 155.528 226.73 154.969 229.662 154.76C232.594 154.481 235.665 154.411 238.737 154.62C240.272 154.69 241.808 154.9 243.414 155.179L244.531 155.388L245.717 155.667C246.485 155.807 247.253 156.017 248.021 156.226C251.092 157.133 254.094 158.25 256.816 159.786C259.609 161.322 262.122 163.137 264.286 165.231C265.403 166.278 266.38 167.325 267.287 168.512C267.706 169.07 268.125 169.559 268.474 170.187C268.893 170.815 269.242 171.374 269.591 172.002C270.987 174.375 271.895 176.819 272.523 179.122C273.151 181.426 273.36 183.59 273.36 185.544C273.36 187.499 273.151 189.105 272.872 190.431C272.802 190.78 272.732 191.059 272.662 191.408L272.453 192.246C272.383 192.525 272.313 192.734 272.244 192.944C272.174 193.153 272.104 193.363 272.034 193.502L271.615 194.549C271.615 194.549 271.685 194.2 271.825 193.433C271.825 193.223 271.895 193.084 271.964 192.874C271.964 192.665 272.034 192.385 272.034 192.176C272.104 191.687 272.174 191.059 272.174 190.431C272.244 189.105 272.244 187.499 272.034 185.684C271.825 183.869 271.336 181.845 270.638 179.751C269.87 177.656 268.823 175.492 267.427 173.398C267.078 172.84 266.729 172.351 266.31 171.862C265.961 171.374 265.472 170.815 265.054 170.327C264.914 170.117 264.635 169.838 264.425 169.629C264.216 169.419 264.006 169.14 263.727 168.931C263.239 168.442 262.75 167.953 262.261 167.535C261.214 166.627 260.097 165.789 258.98 164.952C257.794 164.184 256.607 163.416 255.281 162.788C252.698 161.461 249.975 160.414 247.113 159.577C246.415 159.367 245.717 159.158 244.949 159.018L243.902 158.809L242.785 158.599C241.389 158.39 239.854 158.111 238.457 158.041C235.526 157.762 232.664 157.762 229.871 157.901C227.079 158.041 224.357 158.32 221.774 158.739C220.517 158.948 219.261 159.158 218.074 159.367C217.446 159.507 216.887 159.577 216.259 159.716C215.701 159.856 215.142 159.926 214.584 160.065C212.35 160.554 210.326 161.043 208.58 161.601C206.765 162.09 205.23 162.578 203.973 163.067C202.717 163.486 201.74 163.905 201.041 164.184C200.483 164.254 200.134 164.393 200.134 164.393Z" fill="black"/>
<path d="M87.816 93.4005C87.816 93.4005 88.0254 92.0044 88.4442 89.3517C88.5838 88.7235 88.7235 87.9556 88.9329 87.1878C89.1423 86.4199 89.2819 85.5124 89.5611 84.6049C89.8403 83.6975 90.1894 82.7202 90.4686 81.6033C90.6082 81.0448 90.8176 80.5562 91.0969 79.9977C91.3063 79.4393 91.5157 78.8808 91.7949 78.3224C93.6797 73.7152 96.6813 68.3401 100.87 62.7556C105.058 57.241 110.573 51.4471 117.204 46.0022C120.485 43.2099 124.115 40.6271 127.954 37.9745C131.794 35.3917 135.912 32.8786 140.38 30.7147C142.614 29.5978 144.987 28.6903 147.361 27.8526C149.804 27.0149 152.247 26.3169 154.83 25.6886C159.926 24.5019 165.161 23.7341 170.466 23.2454C175.841 22.687 181.147 22.2681 186.661 21.9191C189.384 21.7097 192.176 21.6399 195.038 21.5701C196.434 21.5701 197.83 21.5701 199.296 21.7097C200.692 21.8493 202.089 21.8493 203.485 22.0587C214.933 23.2454 226.102 26.9451 236.224 32.4598C246.345 38.0443 255.49 45.4437 263.029 53.8903C270.638 62.3368 276.711 71.8304 281.528 81.4637C286.344 91.0969 289.835 100.94 292.348 110.433C293.604 115.18 294.581 119.927 295.21 124.534C295.349 125.721 295.489 126.838 295.559 127.954L295.629 128.862L295.698 129.7C295.698 130.258 295.768 130.817 295.768 131.375C295.768 131.933 295.838 132.492 295.838 133.05V134.726C295.838 135.843 295.838 136.959 295.768 138.007C295.698 139.054 295.629 140.171 295.559 141.218C295.419 142.265 295.349 143.312 295.21 144.289C295.14 145.336 294.93 146.313 294.791 147.291C294.651 148.268 294.512 149.245 294.302 150.223C294.093 151.2 293.953 152.107 293.744 153.085L293.116 155.807C292.697 157.622 292.208 159.367 291.789 161.043C289.974 167.744 287.95 173.468 286.205 178.145C284.529 182.822 282.994 186.452 282.016 188.895C281.039 191.338 280.481 192.665 280.481 192.665C280.481 192.665 280.969 191.338 281.807 188.825C282.714 186.312 283.971 182.613 285.507 177.936C287.042 173.189 288.857 167.465 290.463 160.763C291.999 154.062 293.395 146.383 293.534 137.937C293.604 136.89 293.534 135.843 293.534 134.795V133.19C293.465 132.631 293.465 132.073 293.395 131.515C293.325 130.956 293.325 130.398 293.255 129.839L293.185 129.002L293.116 128.234L292.697 124.883C291.999 120.415 291.021 115.808 289.695 111.201C287.042 101.917 283.413 92.2836 278.596 82.9296C276.223 78.2526 273.5 73.6454 270.429 69.1778C267.427 64.7102 264.006 60.3822 260.377 56.3335C252.977 48.0964 244.181 41.046 234.409 35.7407C229.522 33.0881 224.426 30.7845 219.121 29.1091C213.886 27.364 208.371 26.1773 203.066 25.6188C201.739 25.4792 200.273 25.4094 198.877 25.2698C197.621 25.2 196.155 25.2 194.829 25.1302C192.106 25.1302 189.384 25.2 186.661 25.3396C181.216 25.6886 175.841 26.0377 170.536 26.5263C165.301 27.0149 160.135 27.713 155.179 28.7601C152.736 29.2487 150.292 29.9468 147.989 30.6449C145.615 31.4127 143.382 32.2504 141.218 33.2975C136.89 35.2521 132.841 37.6953 129.002 40.1385C125.162 42.6515 121.532 45.0947 118.251 47.7473C114.971 50.4 111.829 52.9828 109.107 55.7052C107.711 57.0315 106.454 58.4277 105.198 59.6842C104.569 60.3124 104.011 61.0105 103.383 61.7085C102.824 62.4066 102.196 63.0349 101.707 63.7329C97.3794 69.0382 94.308 74.2736 92.2138 78.7412C91.9346 79.2997 91.7251 79.8581 91.5157 80.4166C91.3063 80.975 91.0271 81.4637 90.8874 82.0221C90.5384 83.0692 90.1894 84.0465 89.8404 84.954C89.4913 85.8614 89.3517 86.6991 89.0725 87.5368C88.8631 88.3046 88.6536 89.0027 88.514 89.7008C88.0952 92.0044 87.816 93.4005 87.816 93.4005ZM54.9373 275.734C54.7977 276.223 54.6581 276.641 54.5185 277.13C54.3789 277.619 54.3091 278.107 54.2393 278.526C54.0997 279.503 54.0299 280.411 54.0299 281.388C54.0299 282.365 54.0996 283.273 54.3091 284.18C54.3789 284.669 54.5185 285.088 54.5883 285.507C54.6581 285.786 54.7279 285.926 54.7279 285.856L54.6581 285.786C54.6581 285.786 54.7279 285.856 54.7279 285.786L54.6581 285.716C54.5185 285.646 54.5185 285.646 54.4487 285.646C54.3789 285.646 54.4487 285.646 54.5185 285.507C54.5883 285.437 54.7279 285.297 54.7977 285.158C54.8675 285.088 54.8675 285.018 54.9373 284.948C55.0071 284.878 54.9373 284.878 55.0071 284.739C55.0769 284.529 55.2166 284.25 55.2864 284.111L55.7052 282.854C55.8448 282.435 55.9146 281.947 56.0542 281.528C56.4032 279.783 56.5429 277.898 56.4032 276.153L59.5445 276.432C59.1955 278.177 58.9861 279.852 58.9163 281.598C58.9163 282.435 58.9163 283.343 58.9861 284.18C59.0559 285.018 59.1257 285.926 59.2653 286.763C59.4049 287.601 59.5446 288.508 59.754 289.346C59.8238 289.555 59.8237 289.765 59.8935 289.974C59.9634 290.184 60.0332 290.393 60.0332 290.533C60.1728 290.952 60.3124 291.301 60.452 291.65C60.7313 292.278 61.2199 292.906 61.5689 293.116C61.6387 293.185 61.7085 293.185 61.7085 293.185H61.7783H61.7085H61.7783C61.8481 293.185 61.9179 293.116 61.9877 293.046C62.1273 292.906 62.3368 292.627 62.4764 292.278C62.5462 292.138 62.616 291.929 62.616 291.789C62.6858 291.58 62.7556 291.301 62.7556 291.161C62.965 290.393 63.1047 289.555 63.1047 288.718C63.1745 287.042 62.965 285.228 62.616 283.482C62.267 281.737 61.7085 279.992 61.1501 278.177C60.8709 277.27 60.5916 276.432 60.3124 275.524C60.0332 274.617 59.7539 273.71 59.5445 272.802L60.9406 275.245C61.3595 276.083 61.8481 276.851 62.267 277.688C63.1744 279.364 64.0121 281.039 64.5706 282.854C65.1988 284.669 65.6875 286.624 65.7573 288.648C65.8271 289.695 65.7573 290.672 65.6177 291.719C65.5478 291.999 65.5478 292.208 65.478 292.418C65.4082 292.767 65.3384 292.976 65.1988 293.255C64.9894 293.814 64.7102 294.372 64.2914 294.931C64.0819 295.21 63.8027 295.489 63.4537 295.698C63.3141 295.838 63.1047 295.908 62.8952 295.978L62.5462 296.117C62.4066 296.187 62.267 296.187 62.1273 296.187C61.7783 296.257 61.2199 296.257 60.8708 296.117C60.452 296.047 60.103 295.838 59.754 295.629C58.5673 294.861 57.8692 293.883 57.3805 292.836C56.8919 291.859 56.5429 290.812 56.3335 289.905C56.0542 288.927 55.8448 288.02 55.7052 287.042C55.5656 286.065 55.426 285.088 55.426 284.111C55.3562 283.133 55.3562 282.156 55.426 281.179C55.4958 279.224 55.8448 277.27 56.3335 275.385L59.2653 264.425L59.4747 275.734C59.5445 277.828 59.1955 279.992 58.5673 282.016C58.4276 282.505 58.2182 282.994 58.0088 283.482L57.3805 284.948C57.2409 285.227 57.1711 285.437 57.0315 285.646C56.9617 285.716 56.8919 285.926 56.7523 286.065C56.6825 286.205 56.5429 286.344 56.4032 286.484C56.1938 286.763 55.9146 286.973 55.6354 287.182C55.2864 287.391 54.9373 287.601 54.3789 287.601C54.0997 287.601 53.7506 287.531 53.4714 287.322L53.262 287.112L53.1922 287.042L53.0526 286.903C52.9828 286.833 52.9827 286.763 52.9129 286.693C52.6337 286.205 52.6337 285.856 52.6337 285.646C52.5639 285.158 52.4941 284.599 52.4941 284.111C52.4941 283.064 52.5639 282.016 52.7035 281.039C52.7733 280.551 52.913 280.062 53.0526 279.573C53.1922 279.085 53.3318 278.596 53.5412 278.107C53.9601 277.479 54.3789 276.572 54.9373 275.734ZM34.6238 262.75L33.5767 261.842L32.5296 261.005C31.8316 260.446 31.1335 259.958 30.4354 259.399C29.7374 258.911 28.9695 258.352 28.2714 257.864L26.0376 256.398L23.8039 255.001L21.5701 253.536L19.3363 252.07C18.5684 251.581 17.8703 251.023 17.1025 250.534L19.3363 250.185C18.7778 251.023 18.2193 251.93 17.6609 252.768C17.1024 253.675 16.6138 254.513 16.1252 255.42C15.6366 256.328 15.1479 257.235 14.7291 258.143C14.3102 259.05 13.8914 260.028 13.4725 260.935L13.1235 259.05C14.1706 260.237 15.3573 261.354 16.4742 262.471C17.5911 263.588 18.7778 264.705 19.9645 265.821L23.5246 269.102C24.7113 270.219 25.898 271.336 27.0847 272.383L25.4792 272.453C26.3169 271.755 27.0847 271.057 27.8526 270.289L29.0393 269.172L30.226 268.055C30.9938 267.287 31.7617 266.519 32.4598 265.682L34.6936 263.308C34.2049 264.286 33.6465 265.263 33.0881 266.17C32.5296 267.148 31.9013 268.055 31.2731 268.963C30.6448 269.87 30.0166 270.778 29.2487 271.615C28.5507 272.453 27.8526 273.36 27.0847 274.128L26.4565 274.896L25.549 274.198C24.2227 273.221 22.8964 272.244 21.6398 271.266C20.3135 270.289 19.057 269.242 17.8005 268.195C15.2875 266.101 12.8443 263.867 10.6105 261.424L9.84265 260.586L10.2615 259.539C10.6803 258.562 11.1689 257.515 11.6576 256.537C12.1462 255.56 12.6349 254.583 13.1933 253.675C14.3102 251.79 15.4969 249.975 16.8233 248.23L17.8703 246.904L19.057 247.881C19.7551 248.44 20.3833 248.998 21.0814 249.557L23.1756 251.232L25.2698 252.907L27.364 254.652C28.062 255.211 28.7601 255.839 29.3883 256.467C30.0166 257.096 30.7146 257.724 31.3429 258.352C31.9712 258.98 32.5296 259.678 33.1578 260.377C33.5767 261.284 34.1352 261.982 34.6238 262.75Z" fill="black"/>
<path d="M22.7568 262.192H23.2454C23.5246 262.192 23.8736 262.192 24.2925 262.261C25.0603 262.401 25.898 262.75 26.5263 263.309C27.1545 263.867 27.6432 264.635 27.9224 265.333C28.062 265.682 28.1318 266.031 28.2016 266.31C28.2016 266.45 28.2016 266.589 28.2714 266.659V266.799H28.1318C28.062 266.799 27.9224 266.869 27.7828 266.869C27.5036 266.938 27.1545 266.938 26.7357 266.938C25.898 266.869 24.9905 266.52 24.2925 265.961C23.5944 265.403 23.1058 264.495 22.8964 263.727C22.8265 263.309 22.7568 262.96 22.7568 262.68V262.192Z" fill="black"/>
<path d="M25.3396 260.935H25.8282C26.1075 260.935 26.5263 260.935 26.9452 261.075C27.7828 261.214 28.6903 261.703 29.4582 262.331C30.1562 262.959 30.7147 263.867 30.9241 264.704C31.0637 265.123 31.1335 265.472 31.1335 265.821V266.31H30.6449C30.3656 266.31 29.9468 266.31 29.528 266.17C28.6903 266.031 27.7828 265.542 27.015 264.914C26.3169 264.286 25.7585 263.378 25.549 262.54C25.4094 262.122 25.3396 261.773 25.3396 261.424V260.935ZM239.365 91.7251C239.365 91.7251 239.435 92.6326 239.365 94.1683C239.365 94.9362 239.365 95.8437 239.225 96.9606C239.156 97.519 239.156 98.0775 239.086 98.7057L238.876 100.59C238.806 101.219 238.737 101.917 238.597 102.685C238.457 103.383 238.318 104.151 238.178 104.849C238.039 105.617 237.899 106.384 237.69 107.152C237.48 107.92 237.341 108.758 237.131 109.526C236.642 111.131 236.224 112.807 235.595 114.412C235.037 116.087 234.339 117.693 233.641 119.368C232.873 120.974 232.175 122.579 231.267 124.115C230.5 125.651 229.522 127.117 228.685 128.583C228.266 129.281 227.777 129.979 227.288 130.607C226.87 131.305 226.381 131.933 225.892 132.492C225.404 133.12 224.985 133.679 224.566 134.237C224.147 134.795 223.659 135.284 223.24 135.843L221.983 137.308C221.564 137.727 221.146 138.146 220.796 138.565C220.029 139.333 219.4 140.031 218.772 140.52C217.655 141.567 216.957 142.125 216.957 142.125C216.957 142.125 217.376 141.357 218.214 140.101C218.633 139.472 219.121 138.635 219.68 137.797C220.238 136.89 220.866 135.912 221.564 134.726C222.262 133.609 222.96 132.422 223.659 131.096C224.008 130.467 224.426 129.769 224.775 129.071C225.125 128.373 225.543 127.675 225.892 126.977C226.59 125.511 227.428 124.045 228.126 122.51C228.894 120.974 229.592 119.438 230.29 117.833C230.988 116.227 231.686 114.691 232.245 113.086C232.873 111.55 233.431 109.944 233.99 108.409C234.269 107.641 234.478 106.873 234.758 106.175C235.037 105.477 235.246 104.709 235.456 104.011C235.875 102.615 236.363 101.289 236.712 100.032C237.061 98.7755 237.41 97.6586 237.69 96.6115C237.969 95.5645 238.248 94.7268 238.457 93.9589C239.156 92.6326 239.365 91.7251 239.365 91.7251ZM11.0992 228.964C11.0992 228.964 11.518 228.196 12.2859 226.87C12.7047 226.172 13.1934 225.404 13.7518 224.496C14.031 224.077 14.38 223.589 14.6593 223.03C15.0083 222.542 15.3574 222.053 15.7762 221.495C16.5441 220.378 17.3817 219.261 18.359 218.074C19.2665 216.887 20.3136 215.631 21.3607 214.374C22.4776 213.118 23.5944 211.861 24.7811 210.605C25.9679 209.348 27.2244 208.092 28.4809 206.835C29.8072 205.649 31.0637 204.392 32.39 203.275C33.7163 202.088 35.0426 201.041 36.2991 199.994C37.6255 198.947 38.882 197.97 40.1385 197.132C40.7667 196.713 41.395 196.295 41.9535 195.876C42.5817 195.457 43.1402 195.108 43.6986 194.759C44.2571 194.41 44.8155 194.061 45.3041 193.712C45.7928 193.433 46.3512 193.083 46.7701 192.804C47.6775 192.246 48.5152 191.827 49.2133 191.408C50.6094 190.71 51.3773 190.291 51.3773 190.291C51.3773 190.291 50.749 190.919 49.6321 191.967C48.5152 193.014 46.9097 194.48 44.9551 196.225C43.0005 197.97 40.7667 200.064 38.3933 202.228C37.2066 203.345 35.9501 204.462 34.6936 205.649L30.9241 209.209C29.6676 210.395 28.4111 211.652 27.2244 212.839C26.0377 214.025 24.7812 215.212 23.6643 216.329L17.3817 222.611L12.9141 227.079C11.7274 228.405 11.0992 228.964 11.0992 228.964ZM37.9745 193.223C37.9745 193.223 38.1839 192.804 38.6027 192.106C39.0216 191.408 39.7197 190.431 40.5573 189.384C41.395 188.267 42.4421 187.08 43.6288 185.893C44.257 185.265 44.8155 184.637 45.5135 184.078C46.1418 183.45 46.8399 182.892 47.5379 182.264C48.236 181.705 48.9341 181.077 49.6321 180.588C50.3302 180.03 51.0282 179.541 51.7263 179.052C53.1224 178.075 54.5185 177.238 55.7052 176.609C58.1484 175.283 59.8936 174.655 59.8936 174.655C59.8936 174.655 59.6144 175.074 59.1257 175.702C58.6371 176.33 57.8692 177.238 56.9618 178.215C56.0543 179.192 54.9374 180.309 53.6809 181.496C53.0526 182.054 52.4244 182.682 51.7961 183.241C51.1678 183.799 50.4698 184.428 49.7717 184.986L47.6775 186.661C46.9795 187.22 46.2814 187.778 45.6532 188.267C44.3269 189.314 43.0005 190.221 41.8836 190.989C40.7667 191.757 39.7895 192.316 39.0216 192.734C38.4632 193.014 37.9745 193.223 37.9745 193.223ZM87.5368 62.8952C87.5368 62.8952 88.0953 61.8481 89.0725 59.9634C89.3518 59.4747 89.5611 58.9861 89.9102 58.4277C90.2592 57.8692 90.6082 57.3108 90.9573 56.6825C91.3761 56.0542 91.7252 55.426 92.2138 54.7279C92.6326 54.0299 93.1911 53.3318 93.6797 52.6338C94.2382 51.9357 94.7268 51.098 95.2852 50.3302C95.8437 49.5623 96.5418 48.7944 97.17 47.9567C97.5191 47.5379 97.7983 47.1191 98.1473 46.7002C98.4964 46.2814 98.8454 45.8626 99.1944 45.5135C99.8925 44.6759 100.66 43.8382 101.428 43.0005C103.034 41.395 104.639 39.6498 106.384 38.1141C108.13 36.4387 110.014 34.9728 111.829 33.4371C113.784 31.9712 115.669 30.5052 117.623 29.2487C119.578 27.8526 121.602 26.7357 123.557 25.549C124.534 24.9906 125.511 24.5019 126.489 23.9435C126.977 23.6642 127.466 23.4548 127.885 23.1756C128.373 22.9662 128.862 22.7568 129.281 22.4775L132.003 21.221C132.911 20.8022 133.748 20.523 134.586 20.1739C135.424 19.8249 136.192 19.4759 136.959 19.1967C137.727 18.9174 138.495 18.708 139.193 18.4288C139.891 18.2194 140.52 18.01 141.148 17.8005C141.776 17.5911 142.335 17.4515 142.823 17.3119C144.848 16.7534 146.034 16.4742 146.034 16.4742C146.034 16.4742 144.987 17.0327 143.102 17.9401C142.614 18.1496 142.125 18.4288 141.567 18.708C141.008 18.9872 140.38 19.3363 139.752 19.6155C139.123 19.9645 138.425 20.3136 137.727 20.6626C137.029 21.0814 136.261 21.4305 135.494 21.8493C134.726 22.2681 133.888 22.687 133.05 23.1756L130.537 24.6415C130.118 24.9208 129.63 25.1302 129.211 25.4094C128.792 25.6886 128.304 25.9678 127.885 26.2471C126.977 26.8055 126.07 27.364 125.162 27.9922C123.347 29.2487 121.463 30.4354 119.578 31.8316C117.693 33.1579 115.878 34.6238 113.993 36.0199C112.178 37.4858 110.363 38.9518 108.618 40.4875C106.873 41.9534 105.198 43.559 103.592 45.0249C102.824 45.7928 102.056 46.5606 101.289 47.2587L100.172 48.3756C99.8226 48.7246 99.4736 49.1434 99.1246 49.4925C98.4265 50.1905 97.7285 50.9584 97.1002 51.6565C96.472 52.3545 95.8437 53.0526 95.2155 53.6808C94.657 54.3091 94.0287 54.9373 93.5401 55.5656C93.0515 56.1939 92.493 56.7523 92.0742 57.3108C91.5855 57.8692 91.1667 58.3578 90.7479 58.8465C90.329 59.3351 89.98 59.754 89.631 60.1728C88.3047 61.9878 87.5368 62.8952 87.5368 62.8952ZM125.79 17.0327C125.79 17.0327 126.209 16.4742 126.977 15.6366C127.326 15.2177 127.815 14.6593 128.443 14.1008C128.722 13.8216 129.071 13.5424 129.351 13.1933C129.7 12.8443 130.049 12.5651 130.398 12.2161C131.166 11.518 132.003 10.8897 132.911 10.1917C133.818 9.49362 134.865 8.79556 135.912 8.0975C136.959 7.39944 138.076 6.77119 139.263 6.14293C140.38 5.51468 141.636 4.95623 142.823 4.32797C144.08 3.83933 145.266 3.28088 146.523 2.86205C147.779 2.37341 149.036 2.02437 150.223 1.67534C151.409 1.32631 152.596 1.04709 153.713 0.837672C154.83 0.628254 155.947 0.418836 156.924 0.279224C157.413 0.209418 157.901 0.139611 158.32 0.139611C158.809 0.139611 159.228 0.0698063 159.646 0.0698063C160.484 2.65249e-07 161.182 0 161.741 0H163.556C163.556 0 162.927 0.279224 161.81 0.628254C161.252 0.837672 160.624 1.04709 159.856 1.32631C159.088 1.60554 158.25 1.88476 157.343 2.23379C156.435 2.58282 155.458 2.93185 154.411 3.35069C153.364 3.69972 152.317 4.18836 151.13 4.6072C150.013 5.09584 148.827 5.51468 147.71 6.00332C146.523 6.49196 145.336 7.05041 144.219 7.53905C143.033 8.0975 141.846 8.58614 140.729 9.14459C139.612 9.70304 138.495 10.2615 137.378 10.7501C136.331 11.3086 135.284 11.7972 134.307 12.3557C133.33 12.8443 132.352 13.333 131.515 13.8216C130.677 14.3102 129.839 14.7291 129.141 15.0781C128.443 15.4969 127.815 15.7762 127.326 16.0554C126.349 16.7534 125.79 17.0327 125.79 17.0327Z" fill="black"/>
</svg>
